<svg xmlns="http://www.w3.org/2000/svg" viewBox="0 0 498.24 498.24"><defs><style>.cls-1{fill:#bbbbfb;}.cls-2{fill:#172654;}.cls-3{fill:none;stroke:#000;stroke-miterlimit:10;}.cls-4{fill:#002188;}.cls-5{fill:#fff;}.cls-6{fill:#4553ed;}.cls-7{fill:#535ee9;}.cls-8{fill:#ba75f7;}.cls-9{fill:#8f4e3b;}.cls-10{fill:#2b1112;}</style></defs><g id="Calque_2" data-name="Calque 2"><g id="proposition_graphique" data-name="proposition graphique"><g id="logos"><path class="cls-1" d="M249.12,0C111.54,0,0,111.54,0,249.12S111.54,498.24,249.12,498.24,498.24,386.7,498.24,249.12,386.7,0,249.12,0ZM419.23,419.23a239.93,239.93,0,1,1,51.55-76.48A239.86,239.86,0,0,1,419.23,419.23Z"/><path class="cls-2" d="M489.69,249.12A240.62,240.62,0,0,1,27.46,342.75,240.63,240.63,0,0,1,470.78,155.48,238.92,238.92,0,0,1,489.69,249.12Z"/><path class="cls-1" d="M288.5,298.19c-2.79-14-2.65-32.93,9.71-51.88-2.35,1.79-4.62,3.43-6.7,4.83,0,0,0,0,0,0-4,2.68-7.4,4.49-9.51,4.8-10.42,1.51-14.8-4.12-14.8-4.12l-3-4.64,1.36-8.51-7.76-8.82-11.53,9.7-11.07,2.47c-8.08,5.61-14.3,15.83-14.3,15.83-.54-1.92.77-9.83.77-9.83-8.54,9-10.92,23.22-10.92,23.22l-22.3,23.21c-8.77,11.23,7.69,19.84,7.69,19.84l3.43,17.4c2.25-.79,4.6-1.55,7-2.29a219.28,219.28,0,0,1,29.94-6.72h0A321.81,321.81,0,0,1,296,319.5a77.62,77.62,0,0,1-7.53-21.3Z"/><path class="cls-3" d="M255.15,216.21l-10.3,9.08,7.84-11.15A13.89,13.89,0,0,0,250.23,199l-6.46,5.38a8.63,8.63,0,0,1,2.54,9.61l-4.84,5.84A11.85,11.85,0,0,0,230.93,221l-5.84-.23s4.49-1.81,5.61-3.38-.11-3,2.07-5.31,5.88.12,7.16-1.69-.85-5.85-1.54-8.46,1.84-5.07,1.84-5.07l9.85-5.08C265.3,198.83,255.15,216.21,255.15,216.21Z"/><path class="cls-4" d="M255.15,216.21l-10.3,9.08,7.84-11.15A13.89,13.89,0,0,0,250.23,199l-6.46,5.38a8.63,8.63,0,0,1,2.54,9.61l-4.84,5.84A11.85,11.85,0,0,0,230.93,221l-5.84-.23s4.49-1.81,5.61-3.38-.11-3,2.07-5.31,5.88.12,7.16-1.69-.85-5.85-1.54-8.46,1.84-5.07,1.84-5.07l9.85-5.08C265.3,198.83,255.15,216.21,255.15,216.21Z"/><path class="cls-5" d="M138.32,230.5l-7.73.78-2.3-2.37,3.2-4.33A44.57,44.57,0,0,0,138.32,230.5Z"/><path class="cls-5" d="M206.55,329.43l-4.61-16c-12.37-9.08-7.53-14.92-7.53-14.92l18.91-20.3L207,296.64s-2.77,5.53,6.15,7.84l23.32,18.23Z"/><path class="cls-5" d="M296.86,139.42c-.63-.56-44.12-38.79-81.76-33h0a17.8,17.8,0,0,0-14.14,8.71c6.4,1.18,19.37,5.84,19.37,5.84A106.86,106.86,0,0,0,185,122.61c15.17-.1,22.86,5.44,22.86,5.44-15-2.92-25.89,1-25.89,1-.4,1.17-.8,2.53-1.18,4.12-2.2,9.23-4.2,11.38-4.2,11.38s5.85,3,7.48,12.41,6,13.12,6,13.12l-.72,0c-1-.37-3.28-2.39-7.58-11.1-6.46-13.08-8.2-10.57-8.2-10.57l-9.33-.66c1.21-1.51,7.41-9.58,9.12-17.89,1.2-5.84,4.46-11.28,6.69-14.48,1.23-1.77,2.15-2.85,2.22-2.94l-.49.28a81.43,81.43,0,0,1,8.63-7.85,0,0,0,0,1,0,0,39.89,39.89,0,0,1,9.6-9.8h0c9.73-7.21,27.28-14.46,54.7-6.3h0c11.63,3.46,25,9.69,40.35,19.88h0A299.27,299.27,0,0,1,327,133.48c-13.66-11.87-26.28-20.53-37.78-26.73h0c-51.66-27.9-80.77-6.49-81.33-6.08,11.12-3.91,22.32-3.34,32.84-.33h0C271.45,109.15,296.41,138.87,296.86,139.42Z"/><path class="cls-6" d="M176.9,331c-6.23,3.31-22.44,12.74-34.84,26.85a149.51,149.51,0,0,1,23.73-234.5c-.73,1.44-1.52,3-2.39,4.56A44.17,44.17,0,0,1,144.53,146l2.87,15.17-13.33,19.68-8.3,4.2-.82,8.72,6,7L125.21,209l1.79,4.87s-1.69,6.82.62,9.13l-5.23,7.38,2,3.9a65.63,65.63,0,0,1-15.89,21.32l1.74,12.4A112.5,112.5,0,0,0,124,280.82c1.18.93,2.42,1.87,3.71,2.79,11.08,7.95,25.68,14.71,38.33,8.36l1.07-.76c3.05,2.89,1.75,3.73,1.75,3.73-3.54,15.54,7.38,24,7.38,24Z"/><path class="cls-5" d="M188.24,336.1c-3.93,1.7-7.52,3.45-10.8,5.21-17.44,9.34-26,18.91-28.77,22.54-.71.91-1.06,1.45-1.11,1.52h0a40.06,40.06,0,0,0-6,7.85,68.11,68.11,0,0,0-4,7.57h0q-3.47-2.86-6.76-5.91A169.72,169.72,0,0,1,184,91.78,45.28,45.28,0,0,0,181,102a161.32,161.32,0,0,0-46.1,265.29,78.74,78.74,0,0,1,7.14-9.42c12.4-14.11,28.61-23.54,34.84-26.85l-.64-12.1s-10.92-8.45-7.38-24c0,0,1.3-.84-1.75-3.73l8.48-6c1.55,1.62,3.64,4.12,3.88,5.89.39,2.85-3.76,6.53-2.61,13.69s9.69,14.76,9.69,14.76Z"/><path class="cls-5" d="M213,244.2c-8,7.28-11.9,23-11.9,23l-25.51,18-8.48,6-1.07.76c-12.65,6.35-27.25-.41-38.33-8.36-1.29-.92-2.53-1.86-3.71-2.79A112.5,112.5,0,0,1,110.29,268a140.11,140.11,0,0,0,14.58,9.47l2.34-9.26c5.39-3.84,10.59-18,10.75-18.45-3.47,16.91-7.47,21-7.47,21l-1.88,8.74c11,5.73,24.61,10.62,34,6.38l36-22.45S202.52,250.81,213,244.2Z"/><path class="cls-1" d="M155.15,236.8a7.39,7.39,0,0,0-.26.94c-10.46,2.2-19-4.41-19-4.41l-5.69.21-3-3.18,1.08-1.45,2.3,2.37,7.73-.78A33.18,33.18,0,0,0,155.15,236.8Z"/><path class="cls-4" d="M176.72,173.77h0c-.11,0-1-.24-3-.81s-4.1,1.54-4.1,1.54c-3.76-2.79-12.42.64-12.61.71a10.56,10.56,0,0,1,4.82-4.3,19.46,19.46,0,0,1-2.56-5.8h0a36.67,36.67,0,0,1-1.33-7.62,58.18,58.18,0,0,1,5.28,3.11,54.27,54.27,0,0,1,8.73,7A27.42,27.42,0,0,1,176.72,173.77Z"/><path class="cls-5" d="M189.33,191.61l-6.76,16.45S172.11,207.45,166,211l-9.38-14.91,1.07-4.62,9.23,8.15L157,175.21h0c.19-.07,8.85-3.5,12.61-.71,0,0,2-2.16,4.1-1.54s2.85.79,3,.81h0Z"/><path class="cls-1" d="M266.49,162.84c-4,3.8-14.56,4.28-22.77,6.66l-.06,0c-13.89,3.69-18.34,8.85-18.34,8.85-3.9,20.71-31.17,39-31.17,39-19.64-.15-29.57,6.16-34.52,11.8-5.92-2.16-11.11-6.39-9.82-14.62l-3.08-5.08s8.28-8.73.88-18.54c.16.35,5.07,11.56-4.72,17L126.7,193.15l11.68.81,4.51,5.33s3.84-4.76-.62-10.24l17-24a19.46,19.46,0,0,0,2.56,5.8,10.56,10.56,0,0,0-4.82,4.3h0l9.84,24.39-9.23-8.15-1.07,4.62L166,211c6.15-3.53,16.61-2.92,16.61-2.92l6.76-16.45-12.61-17.84a27.42,27.42,0,0,0-4.75-6.21c-.11-1.28-.32-5.76,1.88-8.72,3.31,3.51,9.11,11.26,15.48,11.27l.72,0s-4.3-3.69-6-13.12-7.48-12.41-7.48-12.41,2-2.15,4.2-11.38c.38-1.59.78-2.95,1.18-4.12,0,0,10.92-3.92,25.89-1,0,0-7.69-5.54-22.86-5.44A106.86,106.86,0,0,1,220.29,121s-13-4.66-19.37-5.84a17.82,17.82,0,0,1,14.14-8.71h0c22.54,7.79,46.91,24.93,46.08,26.84-1.08,2.45-9.08,3.28-9.08,3.28S272.15,157.51,266.49,162.84Z"/><path class="cls-4" d="M164.22,147.78c1.21-1.51,7.41-9.58,9.12-17.89,1.2-5.84,4.46-11.28,6.69-14.48,1.23-1.77,2.15-2.85,2.22-2.94l-.49.28h0a24.53,24.53,0,0,0-6.65,5.2h0c-3.42,4-3.95,8.43-9.45,16.76-8,12.1-13.84,13.63-13.84,13.63l1.54,13.74-19.28,18.76-8.3,4.2-.82,8.72,6,7-5.7,8.25,1.79,4.87s-1.69,6.82.62,9.13l-5.23,7.38,2,3.9a65.81,65.81,0,0,1-15.89,21.32l1.74,12.4V257.53s5.54-1,17.43-22.9l-2.67-4.17,2-2.85,3.16-4.53s.45.58,1.31,1.5a44.09,44.09,0,0,0,6.83,5.92,33.18,33.18,0,0,0,16.82,6.3c5.71.36,12.14-1,19-5.42a44.56,44.56,0,0,1-14.53-2.24c-5.92-2.16-11.11-6.39-9.82-14.62l-3.08-5.08s8.28-8.73.88-18.54c.16.35,5.07,11.56-4.72,17l-16.2-14.75,1.44-6.57,7.38-3.69,21.73-20.5,2,2.7a36,36,0,0,1-1.33-7.62,58.18,58.18,0,0,1,5.28,3.11c.24-.75,1.33-3.88,3.18-4.51a56.86,56.86,0,0,0-5.8-.14c-2.5-3.28,0-8.4,0-8.4Zm-19.59,68.64c1.13,8.72,7.35,13,13.15,15.09a35.36,35.36,0,0,0,10.74,2,30.12,30.12,0,0,1-12,0c-12.56-2.82-15.93-14.42-15.93-14.42.05,5.07,1.25,7.63,1.32,7.79-7.84-4.52-11.58-17.94-11.58-17.94l2.87-4.61Z"/><path class="cls-5" d="M168.52,233.54a30.12,30.12,0,0,1-12,0c-12.56-2.82-15.93-14.42-15.93-14.42.05,5.07,1.25,7.63,1.32,7.79-7.83-4.52-11.57-17.94-11.57-17.94l2.86-4.61,11.39,12.1c1.12,8.72,7.34,13,13.15,15.09A35.27,35.27,0,0,0,168.52,233.54Z"/><path class="cls-5" d="M172,167.56a54.27,54.27,0,0,0-8.73-7c.24-.75,1.33-3.88,3.18-4.51h0c2.24.17,4.56.55,5.78,1.3a8.91,8.91,0,0,1,1.64,1.47C171.65,161.8,171.86,166.28,172,167.56Z"/><path class="cls-4" d="M189.33,170.11c-6.37,0-12.17-7.76-15.48-11.27a8.91,8.91,0,0,0-1.64-1.47c-1.22-.75-3.54-1.13-5.78-1.3h0a56.67,56.67,0,0,0-5.79-.14c-2.51-3.28,0-8.4,0-8.4l3.59.25,9.33.66s1.74-2.51,8.2,10.57C186.05,167.72,188.31,169.74,189.33,170.11Z"/><path class="cls-5" d="M142.27,189.05c4.46,5.48.62,10.24.62,10.24L138.38,194l-11.68-.81,1.43-6.57,7.38-3.69,21.73-20.5,2,2.7h0Z"/><path class="cls-5" d="M362.79,226c-4.81-3.74-18.87-14.22-27.72-15.92-1.36,4.24-2.39,6.71-2.39,6.71l0,0-26.15,33.15c-15.57,16.58-17.73,40.43-18,48.25-2.79-14-2.65-32.93,9.71-51.88l.44-.32h0c3-3.24,19.93-22,27.05-33.82a139.38,139.38,0,0,0-2.78-39.3c.21.33,5.91,10,10.28,28.29a21.65,21.65,0,0,1,10.12-3.72q-.13-3.26-.43-6.32c0-.16,0-.32-.05-.48l0-.14c0-.21,0-.42-.07-.62,0-.43-.09-.86-.14-1.27l-.06-.5,0-.27c-.06-.4-.11-.8-.17-1.2-.11-.79-.23-1.57-.37-2.33,0-.21-.06-.41-.1-.62l-.07-.39q-.09-.58-.21-1.14c-.08-.47-.17-.93-.27-1.39a1.74,1.74,0,0,0-.05-.22l-.06-.34c0-.07,0-.14-.05-.2a2,2,0,0,0-.05-.24s0-.08,0-.12L341,179l-.21-.95c-.08-.35-.17-.7-.25-1.05,0-.13-.07-.27-.11-.4s-.12-.48-.17-.72a2.76,2.76,0,0,1-.08-.27q-.24-.95-.51-1.86c-.07-.27-.15-.53-.23-.8l-.36-1.21q-.13-.44-.27-.84c-.12-.39-.25-.77-.37-1.15-.25-.76-.52-1.5-.78-2.23-.06-.16-.11-.31-.17-.46-.2-.54-.4-1.08-.6-1.59l0-.08-.41-1-.29-.71h0c-.11-.23-.2-.46-.3-.69s-.29-.66-.43-1c-.28-.65-.57-1.28-.86-1.89-.14-.3-.28-.61-.43-.9l-.22-.45c-.07-.14-.14-.29-.22-.43-.29-.58-.57-1.14-.86-1.68l-.44-.81c-.16-.31-.33-.61-.49-.9l-.12-.2c-.08-.15-.16-.28-.24-.42l-.3-.52-.75-1.26a3.28,3.28,0,0,0-.2-.31c-.05-.1-.12-.2-.17-.29s-.16-.24-.23-.36l-.39-.62-.1-.15c-.42-.65-.82-1.24-1.21-1.79-.06-.09-.12-.19-.19-.28l-.1-.14c-.23-.32-.45-.63-.67-.92l-.11-.16-.2-.27-.09-.11-.27-.36-.46-.58c-.54-.69-1-1.22-1.32-1.6l-.05-.05-.53-.59,0,0,.12.08a33.48,33.48,0,0,1,2.85,2.38l.25.24.47.45a3.11,3.11,0,0,1,.32.31l.17.17q.25.24.51.51c.09.08.18.18.27.27l.21.21s0,0,0,0a.08.08,0,0,1,0,0l.05.05.05.05.46.49c.15.15.29.31.44.47s.39.43.59.66a.94.94,0,0,0,.1.1l0,.06.33.37.35.4.39.47.42.5.31.37v0c.22.26.44.54.66.82l.56.72.45.59.05.06a2.35,2.35,0,0,0,.19.25c.62.82,1.25,1.7,1.88,2.62l.34.5c.4.59.8,1.2,1.2,1.82.21.31.41.63.61,1s.41.65.61,1l.22.37c.2.34.41.68.61,1l.55.95c.15.27.31.53.45.81a.7.7,0,0,1,.09.17c.18.31.35.63.52.95s.41.75.61,1.14c.36.69.72,1.39,1.08,2.11,0,.09.09.2.14.29l.19.4c.13.26.26.53.38.79s.23.48.34.72l.43.92c.2.43.39.87.59,1.31s.44,1,.65,1.53.34.78.5,1.18l.57,1.41.06.17c.17.42.33.85.5,1.27s.32.84.47,1.26a2.09,2.09,0,0,1,.08.23l.24.65a3.59,3.59,0,0,1,.12.35v0l.1.29c.12.32.23.64.34,1l.27.77c.27.78.53,1.58.78,2.39.08.27.17.54.26.82.17.54.33,1.1.5,1.66.11.36.22.73.32,1.1s.22.75.32,1.13.21.76.32,1.14c.06.22.12.45.17.67s.09.32.13.49.11.4.16.6,0,.1,0,.15c.08.34.17.68.25,1l.09.35c.08.31.15.62.23.94s.19.82.29,1.24a39.16,39.16,0,0,0,5.52-.29c.37,2.82.79,5.95,1.21,9.18-1.66.17-3.3.27-4.9.31a79.55,79.55,0,0,1-12-.61c7.3,6.49,15.81,15.31,19.4,19.11C362.74,225.63,362.77,225.8,362.79,226Z"/><path class="cls-4" d="M342.45,379l-4.72-11.18-13.58-32.16-9,.62-10.66-16.4q-4.29-.23-8.43-.36a321.81,321.81,0,0,0-59.54,3.21h0a219.28,219.28,0,0,0-29.94,6.72c-2.42.74-4.77,1.5-7,2.29-4,1.4-7.8,2.87-11.29,4.38-3.93,1.7-7.52,3.45-10.8,5.21-17.44,9.34-26,18.91-28.77,22.54-.71.91-1.06,1.45-1.11,1.52h0c.53-.36,1-.73,1.58-1.08,14-9.6,27.74-18.12,52-24.41q3.76-1,7.89-1.87c4.88-1.07,10.15-2.07,15.89-3,29.35-4.62,40.59,5,42.44,15s-12.71,18-12.71,18l62.84,13.13,1,.21,15.89,3.32,11.25,2.35.19-.15ZM314.61,346.2l-15-.2L290.93,332s-11.23-4.2-40.29-4c0,0,24-4.57,45.93-2l9.73,15.89,12.62-.31,11.48,26.45Z"/><path class="cls-5" d="M330.4,367.94,314.61,346.2l-15-.2L290.93,332s-11.23-4.2-40.29-4c0,0,24-4.57,45.93-2l9.73,15.89,12.62-.31Z"/><path class="cls-7" d="M328.45,400.23l-2.86-.6-13.14-2.79-21-4.45h0L208,374.71l-4.77-24.25c-.62.09-1.27.19-1.93.31-.42.06-.85.14-1.29.22h-.06l-1.32.24-1.41.27-.71.15-1.1.22-.5.11-.59.12-.44.09-.47.11c-1,.21-2,.44-3.05.68l-1.29.3-2.65.63-1.4.34c-2.87.71-5.66,1.43-8.15,2.09l-1,.27-3,.81-.7.19L168,358.78l-.51.15-.7.19-.16.05h0l-.13,0s0,0,0,0l.1-.06.07,0h0l.43-.23,1.3-.7.45-.24.1-.05.61-.32c1.24-.64,2.79-1.43,4.6-2.33l1.1-.54.57-.28.82-.4c3.85-1.85,8.51-4,13.42-5.94l.77-.31.78-.31c.5-.19,1-.39,1.5-.57,1.37-.52,2.76-1,4.15-1.51l1.31-.44.41-.13c.44-.15.89-.3,1.34-.43l1.57-.49a74.42,74.42,0,0,1,8.22-2L209,338c4.88-1.07,10.15-2.07,15.89-3,29.35-4.62,40.59,5,42.44,15s-12.71,18-12.71,18l62.84,13.13,1,.21,5.2,9.8,3.9,7.37Z"/><path class="cls-5" d="M391,179.79a59.74,59.74,0,0,1-2.79,8.74,26.72,26.72,0,0,1-3.47,6.19,28.4,28.4,0,0,1-13.12,9.39c-.47-3.6-.94-7.06-1.34-10.15a24.53,24.53,0,0,0,9.74-9.87c2.31-4.21,3.88-9.68,4.24-16.77h0a81,81,0,0,0-1.09-16.8c-.15-.89-.3-1.79-.47-2.72-.91-.46-1.8-.95-2.66-1.46h0a61.39,61.39,0,0,1-13.42-11,40.86,40.86,0,0,0,8,4.32h0a27.22,27.22,0,0,0,9.43,2.12c1.76-5.65,3.57-15.39-2.28-21,9.17,2.69,10.15,12.09,9.33,19.57a50.25,50.25,0,0,1-2.15,9.94,41.16,41.16,0,0,1,3.41,14.27A52.11,52.11,0,0,1,391,179.79Z"/><path class="cls-6" d="M395.28,249.93a149.35,149.35,0,0,1-48.93,110.59l-14.41-33.9-16,1.44-11.48-8.2q-4.29-.23-8.43-.36a77.62,77.62,0,0,1-7.53-21.3h0c.28-7.82,2.44-31.67,18-48.25l26.15-33.15,0,0s1-2.47,2.39-6.71c8.85,1.7,22.91,12.18,27.72,15.92.78,5.94,1.34,10.12,1.34,10.12.85,7.46,12.59,5.93,11.49-1.5-.78-6-2.49-18.93-4-30.49a28.4,28.4,0,0,0,13.12-9.39A148.83,148.83,0,0,1,395.28,249.93Z"/><path class="cls-6" d="M362.72,225.46c-3.59-3.8-12.1-12.62-19.4-19.11a79.55,79.55,0,0,0,12,.61c1.6,0,3.24-.14,4.9-.31C361.09,213.13,362,220,362.72,225.46Z"/><path class="cls-5" d="M260.1,87.89a192.83,192.83,0,0,0-26.35-7.24,109.86,109.86,0,0,0-14.64-2.08C208,77.36,201.19,81.77,197,87.31a33.21,33.21,0,0,0-5.13,10.42,37,37,0,0,0-1.46,7.17,81.43,81.43,0,0,0-8.63,7.85h0a24.53,24.53,0,0,0-6.65,5.2h0c-3.42,4-3.95,8.43-9.45,16.76-8,12.1-13.84,13.63-13.84,13.63l1.54,13.74-19.28,18.76,13.33-19.68L144.53,146a44.17,44.17,0,0,0,18.87-18.05c.87-1.61,1.66-3.12,2.39-4.56,5.1-10,7.32-16,15-19.84,0,0,.05-.56.2-1.53a45.28,45.28,0,0,1,3-10.23c5.6-13.24,20.85-30.59,61.69-11.54A160.52,160.52,0,0,1,260.1,87.89Z"/><path class="cls-4" d="M380,146.33h0a61.39,61.39,0,0,1-13.42-11,40.86,40.86,0,0,0,8,4.32h0a27.22,27.22,0,0,0,9.43,2.12c1.76-5.65,3.57-15.39-2.28-21-11.49-3.37-15.9,3.66-17.45,7.81a15.44,15.44,0,0,0-.77,2.75L362,131.2a41.61,41.61,0,0,0-7.44-.22,30,30,0,0,0-4.2.54,19.45,19.45,0,0,0-8.54,3.88,15.84,15.84,0,0,0-2.2,2.22,28.86,28.86,0,0,1-5.52-8.3,95.14,95.14,0,0,1-6-18.09h0c-.23-1-.35-1.63-.35-1.63s0,.52.05,1.45c.08,2.6.35,8.37,1.07,14.57.2,1.8.45,3.63.74,5.44-.22-.32-.44-.65-.67-1l-.31-.42-.09-.14-.06-.08c-.08-.12-.17-.23-.25-.34l-.31-.42-.17-.22c-.24-.32-.48-.64-.73-1s-.62-.77-.94-1.15-.64-.77-1-1.14-.67-.75-1-1.13-.69-.74-1.05-1.11-.53-.55-.81-.82c-.09-.09-.17-.19-.27-.28l-.41-.4-.49-.46c-.29-.28-.58-.56-.89-.83h0a67.69,67.69,0,0,0-8.33-6.48,235,235,0,0,0-46.78-24h0q-2.54-1-5-1.8a193.14,193.14,0,0,0-26.34-7.24,110.09,110.09,0,0,0-14.65-2.08C208,77.36,201.19,81.77,197,87.31a33,33,0,0,0-5.14,10.42,37,37,0,0,0-1.46,7.17,0,0,0,0,1,0,0,39.89,39.89,0,0,1,9.6-9.8h0c9.73-7.21,27.28-14.46,54.7-6.3h0c11.63,3.46,25,9.69,40.35,19.88h0A301.29,301.29,0,0,1,327,133.48c-13.67-11.87-26.29-20.53-37.79-26.73h0c-51.66-27.9-80.77-6.49-81.33-6.08,11.12-3.91,22.32-3.34,32.85-.33h0c30.72,8.81,55.67,38.53,56.13,39.08-.64-.56-44.12-38.79-81.77-33,22.54,7.79,46.91,24.93,46.08,26.84-1.08,2.45-9.08,3.28-9.08,3.28s20,21,14.39,26.31c-4,3.8-14.56,4.28-22.77,6.66l-.06,0c-13.89,3.69-18.34,8.85-18.34,8.85-2,10.48-9.94,20.34-17.32,27.51a110.26,110.26,0,0,1-13.85,11.45c-19.64-.15-29.57,6.16-34.52,11.8a44.56,44.56,0,0,0,14.53,2.24c-6.88,4.43-13.31,5.78-19,5.42a7.39,7.39,0,0,0-.26.94c-10.46,2.2-19-4.41-19-4.41l-5.69.21-3-3.18,1.08-1.45,3.2-4.33c-.85-.92-1.31-1.5-1.31-1.5L127,227.61l-2,2.85,2.67,4.17c-11.89,21.9-17.43,22.9-17.43,22.9V268a140.11,140.11,0,0,0,14.58,9.47l2.34-9.26c5.39-3.84,10.59-18,10.75-18.45-3.47,16.91-7.47,21-7.47,21l-1.88,8.74c11,5.73,24.61,10.62,34,6.38l36-22.45s4-12.61,14.46-19.22c-8,7.28-11.9,23-11.9,23l-25.51,18c1.55,1.62,3.64,4.12,3.88,5.89.39,2.85-3.76,6.53-2.61,13.69s9.69,14.76,9.69,14.76l1.67,16.55c3.49-1.51,7.25-3,11.29-4.38l-3.43-17.4s-16.46-8.61-7.69-19.84l22.3-23.21s2.38-14.23,10.92-23.22c0,0-1.31,7.91-.77,9.83,0,0,6.22-10.22,14.3-15.83l11.07-2.47,11.53-9.7,7.76,8.82-1.36,8.51,3,4.64s4.38,5.63,14.8,4.12c2.11-.31,5.48-2.12,9.51-4.8,0,0,0,0,0,0,2.08-1.4,4.35-3,6.7-4.83l.44-.32h0c3-3.24,19.93-22,27.05-33.82a139.38,139.38,0,0,0-2.78-39.3c.21.33,5.91,10,10.28,28.29a21.65,21.65,0,0,1,10.12-3.72q-.13-3.26-.43-6.32c0-.21,0-.42-.07-.62s0-.42-.07-.62c0-.43-.09-.86-.14-1.27,0-.22-.05-.43-.08-.64l-.18-1.33c-.11-.79-.23-1.57-.37-2.33,0-.21-.06-.41-.1-.62l-.07-.39q-.09-.58-.21-1.14c-.08-.47-.17-.93-.27-1.39a1.74,1.74,0,0,0-.05-.22c0-.18-.07-.36-.11-.54a2,2,0,0,0-.05-.24s0-.08,0-.12L341,179l-.21-.95c-.08-.35-.17-.7-.25-1.05,0-.13-.07-.27-.11-.4s-.12-.48-.17-.72a2.76,2.76,0,0,1-.08-.27q-.24-.95-.51-1.86c-.07-.27-.15-.53-.23-.8l-.36-1.21q-.13-.44-.27-.84c-.12-.39-.25-.77-.37-1.15-.25-.76-.52-1.5-.78-2.23-.06-.16-.11-.31-.17-.46-.2-.54-.4-1.08-.6-1.59l0-.08-.41-1-.29-.71h0c-.11-.23-.2-.46-.3-.69s-.29-.66-.43-1c-.28-.65-.57-1.28-.86-1.89-.14-.3-.28-.61-.43-.9l-.22-.45c-.07-.14-.14-.29-.22-.43-.29-.58-.57-1.14-.86-1.68l-.44-.81c-.16-.31-.33-.61-.49-.9l-.12-.2c-.05-.1-.11-.19-.16-.28l-.08-.14-.3-.52-.75-1.26a3.28,3.28,0,0,0-.2-.31l-.15-.25c-.08-.13-.16-.27-.25-.4l-.39-.62-.1-.15c-.42-.65-.82-1.24-1.21-1.79-.06-.09-.12-.19-.19-.28l-.1-.14c-.23-.32-.45-.63-.67-.92l-.11-.16-.2-.27-.09-.11-.27-.36-.46-.58c-.54-.69-1-1.22-1.32-1.6l-.05-.05-.53-.59,0,0,.12.08a33.48,33.48,0,0,1,2.85,2.38l.25.24.47.45a3.11,3.11,0,0,1,.32.31l.17.17q.25.24.51.51c.09.08.18.18.27.27l.21.21s0,0,0,0a.08.08,0,0,1,0,0l.05.05.05.05.4.42.07.07h0l.42.46c.2.21.39.43.59.66a.94.94,0,0,0,.1.1l.15.18c.08.08.14.16.22.25l.35.4.39.47.42.5.31.37v0c.22.26.44.54.66.82l.56.72.45.59.05.06a2.35,2.35,0,0,0,.19.25c.62.82,1.25,1.7,1.88,2.62l.34.5c.4.59.8,1.2,1.2,1.82.21.31.41.63.61,1s.41.65.61,1l.22.37c.2.34.41.68.61,1l.55.95c.15.27.31.53.45.81a.7.7,0,0,1,.09.17c.18.31.35.63.52.95s.41.75.61,1.14c.36.69.72,1.39,1.08,2.11,0,.09.09.2.14.29l.19.4c.13.26.26.52.38.79s.23.48.34.72l.43.92c.2.43.39.87.59,1.31s.44,1,.65,1.53.34.78.5,1.18l.57,1.41.06.17c.17.42.34.84.5,1.27s.32.84.47,1.26a2.09,2.09,0,0,1,.08.23l.24.65a3.59,3.59,0,0,1,.12.35v0l.1.29c.12.32.23.64.34,1l.27.77c.27.78.53,1.58.78,2.39.09.27.17.54.26.82.17.54.34,1.1.5,1.66.11.36.22.73.32,1.1s.22.75.32,1.13.21.75.32,1.14c.06.22.12.45.17.67s.09.32.13.49.11.4.16.6,0,.1,0,.15c.08.34.17.68.25,1l.09.35c.08.31.15.62.23.94s.19.82.29,1.24a39.16,39.16,0,0,0,5.52-.29c-.71-5.44-1.28-9.72-1.48-11.32-.53-4.71,11.44-6.23,11.55-1.07.28,2.18.69,5.27,1.17,8.88a24.53,24.53,0,0,0,9.74-9.87c2.31-4.21,3.88-9.68,4.24-16.77h0a81,81,0,0,0-1.09-16.8C382.13,149.1,381.08,147.71,380,146.33ZM122.7,262.75c.13-.28,4.31-9.16,4.92-14.76,0,0-4.72,6.41-8.31,8.92l-2.56,6.36v-7s8.15-8.82,11.48-17.43l6.05,1.84S130.08,256.39,122.7,262.75Zm18.14,8.72a57.14,57.14,0,0,0,7.21-17.23S150.52,267.35,140.84,271.47Zm122.41-64.59L259.15,221l-13.33,12.51-10.72,2s-8.66,6.26-13.27,0l-.41-10.24-2.59,3.41-1.92,2.53-10.46,3.35,6.57-6.22,10-17.15,10.69-18.32,15.38-6.36S266.94,191.5,263.25,206.88Z"/><path class="cls-1" d="M263.25,206.88,259.15,221l-13.33,12.51-10.72,2s-8.66,6.26-13.27,0l3.72-9.76,4.92-.84s5.42-6.54,11-5.16l4.84-5.84a8.63,8.63,0,0,0-2.54-9.61l6.46-5.38a13.89,13.89,0,0,1,2.46,15.15l-7.84,11.15,10.3-9.08s10.15-17.38-5.07-24.45l-9.85,5.08,8.87-10.26S266.94,191.5,263.25,206.88Z"/><path class="cls-5" d="M249.1,186.58l-.26.3-.07.08-8.54,9.88s-2.53,2.45-1.84,5.07,2.8,6.65,1.54,8.46-5-.66-7.16,1.69-1,3.73-2.07,5.31-5.61,3.38-5.61,3.38l5.84.23a11.85,11.85,0,0,1,10.54-1.16c-5.58-1.38-11,5.16-11,5.16l-4.92.84-3.72,9.76-.41-10.24-4.51,5.94-10.46,3.35,6.57-6.22,20.7-35.47,4.3-1.77,10.57-4.38Z"/><path class="cls-5" d="M415.3,249.93a169.28,169.28,0,0,1-60.68,130q-4.29,3.61-8.83,6.93L342.45,379l-4.72-11.18-13.58-32.16-9,.62-10.66-16.4,11.48,8.2,16-1.44,14.41,33.9,4.85,11.4A161.26,161.26,0,0,0,391,179.79a52.11,52.11,0,0,0,1.35-15.18A169,169,0,0,1,415.3,249.93Z"/><g id="crayon"><path class="cls-8" d="M362,131.2a43.42,43.42,0,0,0-7.42-.23,29.89,29.89,0,0,0-4.21.55c-.18-1.41-.39-3-.63-4.8-.48-3.63-1-7.85-1.57-12-1.26-9.46-2.43-18.46-2.42-18.87a6.45,6.45,0,0,1,0-.89v.36a5.78,5.78,0,0,1,1.9-3.75,6.49,6.49,0,0,1,6.35-1,5.84,5.84,0,0,1,3,3.44c.41,1.3,2.92,21.61,4.21,31.7C361.67,128.57,361.93,130.56,362,131.2Z"/><path class="cls-8" d="M364.13,236.1s-.56-4.18-1.34-10.12c0-.18-.05-.35-.07-.52-.72-5.47-1.63-12.33-2.49-18.81-.42-3.23-.84-6.36-1.21-9.18-.71-5.44-1.28-9.72-1.48-11.32-.53-4.71,11.44-6.23,11.55-1.07.28,2.18.69,5.27,1.17,8.88.4,3.09.87,6.55,1.34,10.15,1.53,11.56,3.24,24.46,4,30.49C376.72,242,365,243.56,364.13,236.1Z"/><path class="cls-1" d="M357.09,94.08a5.84,5.84,0,0,0-3-3.44,6.49,6.49,0,0,0-6.35,1,5.78,5.78,0,0,0-1.9,3.75V95l0-.6c0-.31,0-.65.06-1l2.48-19.5a.36.36,0,0,1,.69-.1l7.4,18.23a7.65,7.65,0,0,1,.31.92Z"/><path class="cls-5" d="M352.12,131.22c-.6.08-1.17.19-1.72.3-.18-1.41-.39-3-.63-4.8-.48-3.63-1-7.85-1.57-12-1.26-9.46-2.43-18.46-2.42-18.87a6.45,6.45,0,0,1,0-.89l0-.6c0-.31,0-.65.06-1l2.48-19.5-1.26,18.29a4.93,4.93,0,0,1,.59-.62,6,6,0,0,1,2.62-1.23c-2.38,1-2.95,4-2.95,4Z"/></g><path class="cls-5" d="M128.23,238.87c-3.33,8.61-11.48,17.43-11.48,17.43v7l2.56-6.36c3.59-2.51,8.31-8.92,8.31-8.92-.61,5.6-4.79,14.48-4.92,14.76,7.38-6.36,11.58-22,11.58-22Z"/><path class="cls-5" d="M148.05,254.24a57.14,57.14,0,0,1-7.21,17.23C150.52,267.35,148.05,254.24,148.05,254.24Z"/><g id="lunettes"><path class="cls-9" d="M202,170.68a22.09,22.09,0,0,1-2.32,6.32l-13.49-5c.13-.32.26-.65.4-1,.69-1.71,1.37-3.52,2.05-5.46Z"/><path class="cls-8" d="M202,170.68a22.09,22.09,0,0,1-2.32,6.32l-13.49-5c.13-.32.26-.65.4-1,.69-1.71,1.37-3.52,2.05-5.46Z"/><path class="cls-9" d="M248.59,186.79,238,191.17l-17.15-6.34a21.12,21.12,0,0,0,2.49-7.89Z"/><path class="cls-8" d="M248.59,186.79,238,191.17l-17.15-6.34a21.12,21.12,0,0,0,2.49-7.89Z"/><path class="cls-10" d="M188.65,165.58c-.68,1.94-1.36,3.75-2.05,5.46-.14.33-.27.66-.4,1s-.33.79-.5,1.17L182,171.82l-12.6-4.68,3.17-7.71Z"/><path class="cls-4" d="M188.65,165.58c-.68,1.94-1.36,3.75-2.05,5.46-.14.33-.27.66-.4,1s-.33.79-.5,1.17L182,171.82l-12.6-4.68,3.17-7.71Z"/><path class="cls-5" d="M173.74,156.41v0l0,.08c-.13.35-.6,1.5-1.18,2.92l-3.17,7.71s-10.15,17.13-21.72,24.47c.41-.53,16-13.84,22.33-33,0,0-14.61-7.79-23.38-6.89C149.66,145.24,173.74,156.41,173.74,156.41Z"/><path class="cls-5" d="M173.74,156.41v0l0,.08c-.13.35-.6,1.5-1.18,2.92l-3.17,7.71s-10.15,17.13-21.72,24.47c.41-.53,16-13.84,22.33-33,0,0-14.61-7.79-23.38-6.89C149.66,145.24,173.74,156.41,173.74,156.41Z"/><path class="cls-9" d="M147.63,191.61h0a3.17,3.17,0,0,1-2.7.49,3.26,3.26,0,0,1-2.13-1.79,26.87,26.87,0,0,1-1.63-5.42,34.63,34.63,0,0,1-.53-5.65c0-1,0-1.9.07-2.84l.09-1.42.14-1.41a89.38,89.38,0,0,1,2-11.16c.86-3.68,2.5-7.12,3.61-10.73l1.24,0c-1.19,3.56-3.08,7.35-4,11a88.53,88.53,0,0,0-2.28,11l-.18,1.4-.12,1.4c-.09.93-.11,1.87-.14,2.81a33.86,33.86,0,0,0,.38,5.6,26.76,26.76,0,0,0,1.48,5.41,3.17,3.17,0,0,0,4.7,1.36Z"/><path class="cls-4" d="M147.63,191.61h0a3.17,3.17,0,0,1-2.7.49,3.26,3.26,0,0,1-2.13-1.79,26.87,26.87,0,0,1-1.63-5.42,34.63,34.63,0,0,1-.53-5.65c0-1,0-1.9.07-2.84l.09-1.42.14-1.41a89.38,89.38,0,0,1,2-11.16c.86-3.68,2.5-7.12,3.61-10.73l1.24,0c-1.19,3.56-3.08,7.35-4,11a88.53,88.53,0,0,0-2.28,11l-.18,1.4-.12,1.4c-.09.93-.11,1.87-.14,2.81a33.86,33.86,0,0,0,.38,5.6,26.76,26.76,0,0,0,1.48,5.41,3.17,3.17,0,0,0,4.7,1.36Z"/></g><path class="cls-5" d="M248.59,186.79c0,.57.15-.74,0,0l-59.94-21.21-16.13-6.15c.58-1.42,1-2.57,1.18-2.92l0-.08v0l15.91,6.2-.34,1Z"/><g id="cometes"><path class="cls-1" d="M77.93,145.49a93.19,93.19,0,0,1-1.49-19.42,51.62,51.62,0,0,1,4.2-19.35A36.22,36.22,0,0,1,86,98.14a29.77,29.77,0,0,1,3.59-3.6l1.93-1.66c.68-.5,1.4-.95,2.1-1.42a43.83,43.83,0,0,1,18.73-6.52,78.89,78.89,0,0,1,19.49.23,141.36,141.36,0,0,1,18.85,4,226.54,226.54,0,0,1,35.55,14.14c22.82,11.34,44.12,25.37,64.3,40.73a577.13,577.13,0,0,1,57.06,50.25,570.78,570.78,0,0,1,50,57.19c15.3,20.19,29.26,41.48,40.57,64.18a223.72,223.72,0,0,1,14.21,35.23,128,128,0,0,1,4.25,18.54,79.42,79.42,0,0,1,.85,19,46,46,0,0,1-5.12,18.24A32.5,32.5,0,0,1,399,420a45.13,45.13,0,0,1-18.21,5,82.56,82.56,0,0,1-18.91-1,81.93,81.93,0,0,0,18.9.79,44.63,44.63,0,0,0,18.06-5.11,32.08,32.08,0,0,0,13.05-13.24,45.56,45.56,0,0,0,4.89-18.05,78.1,78.1,0,0,0-1-18.82,126.13,126.13,0,0,0-4.37-18.37A221.21,221.21,0,0,0,397,316.27c-11.46-22.5-25.54-43.59-40.95-63.57a569.33,569.33,0,0,0-50.3-56.54,573.59,573.59,0,0,0-57.18-49.5c-20.19-15.09-41.45-28.83-64.06-39.82a222.88,222.88,0,0,0-35-13.58,138.37,138.37,0,0,0-18.25-3.75,75.55,75.55,0,0,0-18.34-.07A39.29,39.29,0,0,0,96.2,95.38c-.6.42-1.23.8-1.82,1.24l-1.65,1.46a25.94,25.94,0,0,0-3.08,3.12,32.1,32.1,0,0,0-4.57,7.51,46.71,46.71,0,0,0-3.62,17.53A88.5,88.5,0,0,0,83,144.56Z"/><ellipse class="cls-1" cx="80.72" cy="144.7" rx="6.22" ry="16.52" transform="translate(-16.96 10.86) rotate(-6.97)"/></g><g id="etoiles"><path class="cls-1" d="M204.27,48.82a5.63,5.63,0,0,0-3,1.31,5.81,5.81,0,0,0-2,3.76,5.8,5.8,0,0,0-5-5.09,5.81,5.81,0,0,0,5-5h0A5.82,5.82,0,0,0,204.27,48.82Z"/><path class="cls-1" d="M187.67,32.88a3.64,3.64,0,0,0-1.88.82,3.7,3.7,0,0,0-1.32,2.41,3.71,3.71,0,0,0-3.19-3.24,3.72,3.72,0,0,0,3.19-3.23,3.68,3.68,0,0,0,1.81,2.75A3.72,3.72,0,0,0,187.67,32.88Z"/><path class="cls-1" d="M221.14,27a8.48,8.48,0,0,0-6.43,4.58v0h0a8.32,8.32,0,0,0-.82,2.77,8.46,8.46,0,0,0-7.29-7.4,8.47,8.47,0,0,0,7.28-7.36h0a8.43,8.43,0,0,0,5.75,7A7.8,7.8,0,0,0,221.14,27Z"/></g></g></g></g></svg>