<svg xmlns="http://www.w3.org/2000/svg" xmlns:xlink="http://www.w3.org/1999/xlink" viewBox="0 0 2300 2019.42"><defs><style>.cls-1{isolation:isolate;}.cls-2{fill:#9aa4b6;}.cls-10,.cls-11,.cls-12,.cls-13,.cls-14,.cls-15,.cls-16,.cls-17,.cls-18,.cls-19,.cls-2,.cls-20,.cls-21,.cls-22,.cls-23,.cls-24,.cls-25,.cls-26,.cls-27,.cls-28,.cls-29,.cls-3,.cls-30,.cls-31,.cls-32,.cls-33,.cls-34,.cls-35,.cls-36,.cls-37,.cls-38,.cls-39,.cls-4,.cls-40,.cls-41,.cls-42,.cls-43,.cls-44,.cls-5,.cls-6,.cls-7,.cls-8,.cls-9{stroke:#000218;stroke-miterlimit:1;}.cls-3,.cls-46{fill:none;}.cls-4{fill:#acb3c1;}.cls-5{fill:#131a13;}.cls-6{fill:#768199;}.cls-7{fill:#8c98aa;}.cls-8{fill:#77819a;}.cls-9{fill:#515273;}.cls-10{fill:#2e314f;}.cls-11{fill:#8997b0;}.cls-12{fill:#4e5478;}.cls-13{fill:#637089;}.cls-14{fill:#75758e;}.cls-15{fill:#9ba3b6;}.cls-16{fill:#a7b1c4;}.cls-17{fill:#7e8b9b;}.cls-18{fill:#78839e;}.cls-19{fill:#5c657f;}.cls-20{fill:#3e4768;}.cls-21{fill:#575272;}.cls-22{fill:#3b4464;}.cls-23{fill:#7d8aa3;}.cls-24{fill:#68738f;}.cls-25{fill:#19162f;}.cls-26{fill:#001a3e;}.cls-27{fill:#404a6d;}.cls-28{fill:#282a47;}.cls-29{fill:#262742;}.cls-30{fill:#52597e;}.cls-31{fill:#312943;}.cls-32{fill:#677489;}.cls-33{fill:#3a4463;}.cls-34{fill:#6e7b91;}.cls-35{fill:#8794ae;}.cls-36{fill:#474e72;}.cls-37{fill:#50587b;}.cls-38{fill:#414c6f;}.cls-39{fill:#56576c;}.cls-40{fill:#1b1732;}.cls-41{fill:#292a46;}.cls-42{fill:#303453;}.cls-43{fill:#1b1833;}.cls-44{fill:#8894af;}.cls-45{mix-blend-mode:hard-light;}.cls-47{fill:#29d7e1;}.cls-48{fill:#f02c2d;}.cls-49,.cls-50,.cls-51,.cls-52{opacity:0.5;}.cls-49{fill:url(#Dégradé_sans_nom_14);}.cls-50{fill:url(#Dégradé_sans_nom_14-2);}.cls-51{fill:url(#Dégradé_sans_nom_14-3);}.cls-52{fill:url(#Dégradé_sans_nom_14-4);}</style><linearGradient id="Dégradé_sans_nom_14" x1="749.64" y1="655.18" x2="990.17" y2="562.85" gradientUnits="userSpaceOnUse"><stop offset="0" stop-color="#fff" stop-opacity="0"/><stop offset="0.19" stop-color="#fff" stop-opacity="0.01"/><stop offset="0.33" stop-color="#fff" stop-opacity="0.05"/><stop offset="0.44" stop-color="#fff" stop-opacity="0.11"/><stop offset="0.55" stop-color="#fff" stop-opacity="0.19"/><stop offset="0.65" stop-color="#fff" stop-opacity="0.3"/><stop offset="0.74" stop-color="#fff" stop-opacity="0.44"/><stop offset="0.83" stop-color="#fff" stop-opacity="0.6"/><stop offset="0.92" stop-color="#fff" stop-opacity="0.78"/><stop offset="1" stop-color="#fff" stop-opacity="0.99"/><stop offset="1" stop-color="#fff"/></linearGradient><linearGradient id="Dégradé_sans_nom_14-2" x1="750.02" y1="1453.34" x2="999.39" y2="1534.37" xlink:href="#Dégradé_sans_nom_14"/><linearGradient id="Dégradé_sans_nom_14-3" x1="129.15" y1="1448.24" x2="416.36" y2="1641.96" xlink:href="#Dégradé_sans_nom_14"/><linearGradient id="Dégradé_sans_nom_14-4" x1="137.52" y1="523.18" x2="350" y2="592.22" xlink:href="#Dégradé_sans_nom_14"/></defs><g class="cls-1"><g id="Tie_fighter_interceptor_-_couleurs" data-name="Tie fighter interceptor - couleurs"><path class="cls-2" d="M1025.22,958.63a241.28,241.28,0,0,0-27-55.83,246.88,246.88,0,0,0-53-58.2c-172.16-25-310.88-1-310.88-1a247.58,247.58,0,0,0-41.22,41l16.4-1.31,1.26,7.74S598.06,905.57,583,947.1l-.25.87,5.91-.6c-8.36,23.46-9.71,38.56-9.71,38.56l35.87,1.89a242.84,242.84,0,0,0-5.64,51.88c0,14,1.46,29.13,5.64,43.31h-31s5.79,31.68,14.56,51.23l-14.1-1.78c8.36,21.34,25.24,46.37,25.24,46.37v14l-10.71-.77a251.34,251.34,0,0,0,334.89,41.7l-9-2.28,7.55-27.86,26.61-16.54,4,3.23,1.28,9.81h0a25.77,25.77,0,0,1,4.56,1.83c.43.22.85.45,1.24.69a244.5,244.5,0,0,0,50.52-78.19,240.24,240.24,0,0,0,17.11-82.67c.07-2.3.1-4.62.1-6.94A240.56,240.56,0,0,0,1025.22,958.63Zm-45.46,207c-31.54,35.34-73.63,54.8-118.52,54.8a152.27,152.27,0,0,1-57.43-11.19v2.71l-2.15,6.09a8.34,8.34,0,0,1,0,4.78,11.21,11.21,0,0,1-3.75,5.82h0l-5.6,15.84L758,1226.11V1206l16.32-12.6a171.59,171.59,0,0,1-31.56-27.78c-31-34.78-48.13-80.89-48.13-129.85s17.09-95.06,48.13-129.84c31.54-35.34,73.63-54.8,118.51-54.8s87,19.46,118.52,54.8c31,34.78,48.13,80.89,48.13,129.84S1010.8,1130.81,979.76,1165.59Z"/><path class="cls-3" d="M882,883.38c-1.74-.07-3.48-.11-5.23-.11H875.7c2.12,0,4.24.09,6.33.22Zm89.78,49-26.39,62,12.14,33.23h48.11C1004.59,991.07,992,957.79,971.77,932.43Zm-14.73,107-11.74,35.18L973.06,1131c19.22-24.88,31.29-57.09,32.53-92.42Z"/><path class="cls-3" d="M882,883.38c-1.74-.07-3.48-.11-5.23-.11H875.7c2.12,0,4.24.09,6.33.22Zm89.78,49-26.39,62,12.14,33.23h48.11C1004.59,991.07,992,957.79,971.77,932.43Zm-14.73,107-11.74,35.18L973.06,1131c19.22-24.88,31.29-57.09,32.53-92.42Z"/><path class="cls-4" d="M967.76,1141.42h0c-.82.86-1.64,1.71-2.48,2.55-21.63,21.64-49.58,35.49-80.32,37.59l0-.19c30.44-2.71,58-17.33,79-39.77l-29.32-57.14-.1-.2,4.14-2,4.72-2.3-4.66,2.41,27.69,56.56Z"/><path class="cls-4" d="M979.76,905.9c-31.54-35.34-73.63-54.8-118.52-54.8s-87,19.46-118.51,54.8c-31,34.78-48.13,80.89-48.13,129.84s17.09,95.07,48.13,129.85a171.59,171.59,0,0,0,31.56,27.78l.46.32a157.52,157.52,0,0,0,29.06,15.51,152.27,152.27,0,0,0,57.43,11.19c44.89,0,87-19.46,118.52-54.8,31-34.78,48.13-80.89,48.13-129.85S1010.8,940.68,979.76,905.9Zm-106,293.42c-81.28,0-147.17-73.21-147.17-163.53s65.89-163.52,147.17-163.52h3c79.6,0,144.13,71.76,144.13,160.29,0,.37,0,.75,0,1.12v1c0,.38,0,.77,0,1.16C1020.89,1126.11,955,1199.32,873.72,1199.32Z"/><path class="cls-4" d="M1020.89,1035.79c0,90.32-65.89,163.53-147.17,163.53s-147.17-73.21-147.17-163.53,65.89-163.52,147.17-163.52h1.18c-78.75,1.11-142.28,72.44-142.28,160.28,0,88.52,64.53,160.29,144.14,160.29,79,0,143.12-70.65,144.12-158.22C1020.89,1035,1020.89,1035.4,1020.89,1035.79Z"/><path class="cls-3" d="M882,883.38c-1.74-.07-3.48-.11-5.23-.11H875.7c2.12,0,4.24.09,6.33.22Zm89.78,49-26.39,62,12.14,33.23h48.11C1004.59,991.07,992,957.79,971.77,932.43Zm-14.73,107-11.74,35.18L973.06,1131c19.22-24.88,31.29-57.09,32.53-92.42Z"/><path class="cls-2" d="M876.76,872.27H874.9c-78.75,1.11-142.28,72.44-142.28,160.28,0,88.52,64.53,160.29,144.14,160.29,79,0,143.12-70.65,144.12-158.22v-1c0-.37,0-.75,0-1.12C1020.89,944,956.36,872.27,876.76,872.27Zm133,166.29c-1.3,36.7-14.47,70-35.33,95.3q-3.23,3.92-6.69,7.56h0c-.82.86-1.64,1.71-2.48,2.55-21.63,21.64-49.58,35.49-80.32,37.59-2.71.19-5.45.28-8.2.28h-2.1c-1.61,0-3.22-.09-4.82-.18-31.2-1.8-59.59-15.7-81.51-37.58q-3.57-3.57-6.91-7.41c-.72-.83-1.43-1.66-2.13-2.51-19-22.94-31.72-52.58-34.9-85.39q-.32-3.3-.5-6.63c-.07-1.16-.12-2.33-.16-3.5-.07-2-.11-4-.11-6.07,0-1.4,0-2.8,0-4.2,0-1.8.12-3.59.22-5.37q.09-1.62.21-3.24c2.54-33.27,14.84-63.46,33.68-86.93.82-1,1.65-2,2.49-3,1.63-1.93,3.32-3.81,5.05-5.64,22-23.36,51.07-38.4,83.2-40.61,1.3-.09,2.59-.16,3.9-.2h0c1.09,0,2.18-.07,3.27-.07h1.06c1.75,0,3.49,0,5.23.11,33.54,1.46,63.94,16.9,86.66,41.27,1.49,1.58,2.94,3.21,4.36,4.87h0c21.9,25.71,35.71,60.14,36.81,98.11,0,1.63.07,3.27.07,4.92Q1009.89,1035.57,1009.78,1038.56Z"/><path class="cls-4" d="M1009.82,1027.64c-1.1-38-14.91-72.4-36.81-98.11h0c-1.42-1.66-2.87-3.29-4.36-4.87-22.72-24.37-53.12-39.81-86.66-41.27l0,.12c-2.09-.13-4.21-.21-6.33-.22-1.09,0-2.18,0-3.27.07h0c-1.31,0-2.6.11-3.9.2-32.13,2.21-61.21,17.25-83.2,40.61-1.73,1.83-3.42,3.71-5.05,5.64-.84,1-1.67,2-2.49,3-18.84,23.47-31.14,53.66-33.68,86.93q-.12,1.62-.21,3.24c-.1,1.78-.18,3.57-.22,5.37H844.6l-3.21,7.43,1.49,3.9,14.73,38.44,1.39,3.62,6.41,2.72-2.52,2,29.73,12.64-22.78,82.59c1.6.09,3.21.15,4.82.18h2.1c2.75,0,5.49-.09,8.2-.28l0-.19c30.44-2.71,58-17.33,79-39.77l-29.32-57.14-.1-.2,4.14-2,4.72-2.3,1.8-5.39L957,1039.38l48.55-.76c-1.24,35.33-13.31,67.54-32.53,92.42l1.39,2.82c20.86-25.25,34-58.6,35.33-95.3q.11-3,.11-6C1009.89,1030.91,1009.87,1029.27,1009.82,1027.64Zm-52.3,0-12.14-33.23,26.39-62c20.18,25.36,32.82,58.64,33.86,95.21Z"/><path class="cls-4" d="M958.65,924.65l-1.28,2.5-30,58.1-2.3-1.21,30-59.39c-21.88-23.82-51-39.11-83.09-41.15l0-.12C905.53,884.84,935.93,900.28,958.65,924.65Z"/><path class="cls-4" d="M859.27,994.41l-14.67,33.95h-4.18l14.35-33.22-77-62.32c.82-1,1.65-2,2.49-3l75.91,62.08Z"/><path class="cls-3" d="M882,883.38c-1.74-.07-3.48-.11-5.23-.11H875.7c2.12,0,4.24.09,6.33.22Zm89.78,49-26.39,62,12.14,33.23h48.11C1004.59,991.07,992,957.79,971.77,932.43Zm-14.73,107-11.74,35.18L973.06,1131c19.22-24.88,31.29-57.09,32.53-92.42Z"/><path class="cls-4" d="M1009.82,1027.64h-4.19c-1-36.57-13.68-69.85-33.86-95.21l1.24-2.9C994.91,955.24,1008.72,989.67,1009.82,1027.64Z"/><path class="cls-4" d="M1009.78,1038.56c-1.3,36.7-14.47,70-35.33,95.3l-1.39-2.82c19.22-24.88,31.29-57.09,32.53-92.42Z"/><path class="cls-2" d="M841.39,1035.79l1.49,3.9-4.15,0-95-1c-.07-2-.11-4-.11-6.07,0-1.4,0-2.8,0-4.2H844.6Z"/><path class="cls-4" d="M857.61,1078.13l-3.19,2.46-73,56.07c-.72-.83-1.43-1.66-2.13-2.51l73.42-58-14-36.47,4.15,0Z"/><path class="cls-5" d="M852.71,1076.13l-73.42,58c-19-22.94-31.72-52.58-34.9-85.39q-.32-3.3-.5-6.63c-.07-1.16-.12-2.33-.16-3.5l95,1Z"/><path class="cls-5" d="M854.77,995.14l-14.35,33.22H743.67c0-1.8.12-3.59.22-5.37q.09-1.62.21-3.24c2.54-33.27,14.84-63.46,33.68-86.93Z"/><path class="cls-5" d="M892.65,970.27l-28.54,13.27-78.79-59.38c22-23.36,51.07-38.4,83.2-40.61Z"/><path class="cls-5" d="M971.77,932.43l-26.39,62,12.14,33.23h48.11C1004.59,991.07,992,957.79,971.77,932.43Zm-14.73,107-11.74,35.18L973.06,1131c19.22-24.88,31.29-57.09,32.53-92.42Z"/><path class="cls-5" d="M892.62,1099.06l-22.78,82.59c-31.2-1.8-59.59-15.7-81.51-37.58l74.55-57.65h0Z"/><path class="cls-5" d="M964.06,1141.61c-21.06,22.44-48.61,37.06-79,39.77l22.88-83.06.33-1.19,26.42-12.86.1.2Z"/><path class="cls-2" d="M973,929.52h0l-1.24,2.9-26.39,62-2.24-6.14-5.75-3,30-58.1,1.28-2.5C970.14,926.23,971.59,927.86,973,929.52Z"/><path class="cls-2" d="M1009.89,1032.56q0,3-.11,6l-4.19.06-48.55.76,2.28-6.82-1.8-4.92h52.3C1009.87,1029.27,1009.89,1030.91,1009.89,1032.56Z"/><path class="cls-2" d="M974.45,1133.86q-3.23,3.92-6.69,7.56l-1.23-2.5-27.69-56.56,4.66-2.41,1.8-5.39L973.06,1131Z"/><path class="cls-2" d="M908.22,1097.13l-.33,1.19L885,1181.38c-3.08.28-6.18.44-9.31.46h-1L896,1100.49l.71-2.72,5.45,2.32Z"/><path class="cls-2" d="M865.41,1084.47l-2.52,2h0l-74.55,57.65q-3.57-3.57-6.91-7.41l73-56.07,3.19-2.46,1.39,3.62Z"/><path class="cls-2" d="M866.69,985.48l-4.45,2.07-3,6.86-3.09-2.53L780.27,929.8c1.63-1.93,3.32-3.81,5.05-5.64l78.79,59.38Z"/><path class="cls-5" d="M965.12,924.65l-30,59.39-26.9-14.13L882,883.5C914.17,885.54,943.24,900.83,965.12,924.65Z"/><path class="cls-4" d="M896.7,1097.77l-.71,2.72-21.32,81.34h0c-1.61,0-3.22-.09-4.82-.18l22.78-82.59-29.73-12.64,2.52-2Z"/><path class="cls-2" d="M957.52,1027.64l-12.14-33.23-2.24-6.14-5.75-3-2.3-1.21-26.9-14.13L882,883.5c-2.09-.13-4.21-.21-6.33-.22-1.09,0-2.18,0-3.27.07h0L896,968.73l.76,2.78-30,14-4.45,2.07-3,6.86-14.67,33.95-3.21,7.43,1.49,3.9,14.73,38.44,1.39,3.62,6.41,2.72,31.29,13.3,5.45,2.32,6.07-3,26.42-12.86,4.14-2,4.72-2.3,1.8-5.39L957,1039.38l2.28-6.82Zm-21.36,45.87-34.27,16.69L866,1075l-14.94-39,18-41.74,34-15.79,32.82,16.26,13.86,38Z"/><polygon class="cls-5" points="945.78 1032.69 932.16 1073.51 901.89 1090.2 866.04 1074.96 851.1 1036 869.14 994.26 903.1 978.47 931.92 994.73 945.78 1032.69"/><polygon class="cls-4" points="949.78 1032.69 936.16 1073.51 901.89 1090.2 932.16 1073.51 945.78 1032.69 931.92 994.73 903.1 978.47 935.92 994.73 949.78 1032.69"/><path class="cls-4" d="M951.05,839.41s-5.62-1.15-16.38-2.73c-38.5-5.62-142.78-16.77-290.28-.63q-6.79.74-13.7,1.56s57.53-53.21,160.72-53.21S951.05,839.41,951.05,839.41Z"/><path class="cls-6" d="M951.05,839.41l-5.88,5.19c-172.16-25-310.88-1-310.88-1h0l-3.6-5.95q6.91-.83,13.7-1.56c147.5-16.14,251.78-5,290.28.63C945.43,838.26,951.05,839.41,951.05,839.41Z"/><path class="cls-2" d="M1047.29,961.55l-22.07-2.92a241.28,241.28,0,0,0-27-55.83l27.62,9.6,6.12,14Z"/><path class="cls-7" d="M1135.86,1040.17v13l-.3.12-44.29,18L1077,1094l-14.47,23-15.64,2.78-26.54,4.72a240.24,240.24,0,0,0,17.11-82.67l98.18-1.63Z"/><line class="cls-3" x1="874.66" y1="1181.85" x2="874.66" y2="1181.83"/><line class="cls-3" x1="857.62" y1="1078.13" x2="857.61" y2="1078.13"/><path class="cls-2" d="M1135.86,1029.25v10.92h-.24l-98.18,1.63c.07-2.3.1-4.62.1-6.94a240.56,240.56,0,0,0-12.32-76.24l22.07,2.92,14.5,1.91L1073,980.87l18.24,28.25,44.35,20Z"/><path class="cls-4" d="M1158.62,1024.65V1051a45.68,45.68,0,0,1-5.39,21.63,77.53,77.53,0,0,1-11.71,16.75l-.14,0v.11l-.11.12a32.51,32.51,0,0,1-6.65,5.32l-19.12.62a28.6,28.6,0,0,0,6.42-4.64c5.49-5.09,10.06-12.27,13.31-18.31a45.68,45.68,0,0,0,5.39-21.63v-26.37c0-.46,0-.94,0-1.41-1.39-21.48-10.37-34.22-17.19-40.91a36.6,36.6,0,0,0-7.89-6.11h18a37.22,37.22,0,0,1,8,6.24l.4.4h0c6.76,6.82,15.3,19.45,16.66,40.37C1158.61,1023.71,1158.62,1024.19,1158.62,1024.65Z"/><path class="cls-8" d="M1158.87,1094.33v8L1102.78,1124l-7.19,2.79-14,5.45-48.45,18.79,13.76-31.3,15.64-2.78,14.47-23,36-2.43h0l2.47-.16v4.2l19.12-.62a32.51,32.51,0,0,0,6.65-5.32h.11l-.11,4.68Z"/><path class="cls-6" d="M1140.62,1024.65V1051a45.68,45.68,0,0,1-5.39,21.63c-3.25,6-7.82,13.22-13.31,18.31a28.6,28.6,0,0,1-6.42,4.64v-6c6-5,11.75-11.46,14.73-17a45.52,45.52,0,0,0,5.33-19.34l.3-.12v-23.94l-.24-.11v-4.49c0-.46,0-.94,0-1.41-1.41-21.7-11.69-34.49-19.41-41.12l-.67,0v-5.88a36.6,36.6,0,0,1,7.89,6.11c6.82,6.69,15.8,19.43,17.19,40.91C1140.61,1023.71,1140.62,1024.19,1140.62,1024.65Z"/><path class="cls-4" d="M1158.87,975.32v.9h-14l-3.3.16v6.08a37.22,37.22,0,0,0-8-6.24h-18v5.88L1073,980.87l-11.24-17.41-14.5-1.91L1032,926.41l48.81,18.81,15.37,5.92,5.66,2.18Z"/><path class="cls-8" d="M1046.87,1119.76l-13.76,31.3-6.2,14.1-35.66,11.89a242.64,242.64,0,0,0,29.08-52.57Z"/><line class="cls-3" x1="968.66" y1="924.64" x2="968.65" y2="924.65"/><path class="cls-4" d="M896.73,971.51l-30,14-2.58-1.94,28.54-13.27-24.13-86.72c1.3-.09,2.59-.16,3.9-.2L896,968.73Z"/><line class="cls-3" x1="784.93" y1="923.87" x2="784.92" y2="923.86"/><path class="cls-9" d="M802,1220.39a8.13,8.13,0,0,1-.35,2.39,7.2,7.2,0,0,1-3.16,4.16,5.79,5.79,0,0,1-3,.82l-.42,0a6.59,6.59,0,0,1-5.63-4.76,8.2,8.2,0,0,1,.35-6.06,6.41,6.41,0,0,1,5.7-3.88,5.41,5.41,0,0,1,1.21.13,6.8,6.8,0,0,1,4.89,4.82v0A8.13,8.13,0,0,1,802,1220.39Z"/><path class="cls-10" d="M782.55,1231.33a10.18,10.18,0,0,0,4,.82h-8c-6.33,0-11.47-5.86-11.47-13.06s5.14-13.06,11.47-13.06h8a10.18,10.18,0,0,0-4,.82c-4.36,1.85-7.47,6.64-7.47,12.24S778.19,1229.48,782.55,1231.33Z"/><path class="cls-11" d="M803.81,1211.91l-2.15,6.09v0c-.1-.43-1.68-6.18-9.08-10a25.19,25.19,0,0,0-4.6-1.84,8.33,8.33,0,0,0-1.42-.11h-8c-6.33,0-11.47,5.86-11.47,13.06s5.14,13.06,11.47,13.06h8s6.73.25,11.36-3.54l-5.6,15.84L758,1226.11l15.82-28.59Z"/><path class="cls-4" d="M803.81,1209.2v2.71l-30-14.39,1-3.83A157.52,157.52,0,0,0,803.81,1209.2Z"/><path class="cls-7" d="M774.75,1193.69l-1,3.83L758,1206l16.32-12.6Z"/><polygon class="cls-12" points="773.79 1197.52 757.97 1226.11 757.97 1205.97 773.79 1197.52"/><path class="cls-10" d="M801.66,1222.78a11.21,11.21,0,0,1-3.75,5.82h0c-4.63,3.79-11.36,3.54-11.36,3.54a10.18,10.18,0,0,1-4-.82c-4.36-1.85-7.47-6.64-7.47-12.24s3.11-10.39,7.47-12.24a10.18,10.18,0,0,1,4-.82,8.33,8.33,0,0,1,1.42.11,25.19,25.19,0,0,1,4.6,1.84c7.4,3.82,9,9.57,9.08,10a6.8,6.8,0,0,0-4.89-4.82,5.41,5.41,0,0,0-1.21-.13,6.41,6.41,0,0,0-5.7,3.88,8.2,8.2,0,0,0-.35,6.06,6.59,6.59,0,0,0,5.63,4.76l.42,0a5.79,5.79,0,0,0,3-.82A7.2,7.2,0,0,0,801.66,1222.78Z"/><path class="cls-9" d="M978,1214.39a8.13,8.13,0,0,1-.35,2.39,6.6,6.6,0,0,1-6.11,5l-.42,0a6.2,6.2,0,0,1-4.67-2.82,7.17,7.17,0,0,1-1-1.94,8.07,8.07,0,0,1-.42-2.58,8.18,8.18,0,0,1,.44-2.65,7.55,7.55,0,0,1,.33-.83,6.41,6.41,0,0,1,5.7-3.88,5.41,5.41,0,0,1,1.21.13,6.8,6.8,0,0,1,4.89,4.82v0A8.13,8.13,0,0,1,978,1214.39Z"/><path class="cls-10" d="M977.66,1216.78c-1.88,6.86-8.49,8.7-12.31,9.19h0a19.19,19.19,0,0,1-2.79.17,10.18,10.18,0,0,1-4-.82,12.09,12.09,0,0,1-6.15-6.17,14.43,14.43,0,0,1-1.32-6.07c0-5.49,3-10.2,7.21-12.12l.26-.12a10.18,10.18,0,0,1,4-.82l1.36.1h.1a25.77,25.77,0,0,1,4.56,1.83c.43.22.85.45,1.24.69,6.34,3.79,7.75,8.91,7.84,9.31a6.8,6.8,0,0,0-4.89-4.82,5.41,5.41,0,0,0-1.21-.13,6.41,6.41,0,0,0-5.7,3.88,7.55,7.55,0,0,0-.33.83,8.18,8.18,0,0,0-.44,2.65,8.07,8.07,0,0,0,.42,2.58,7.17,7.17,0,0,0,1,1.94,6.2,6.2,0,0,0,4.67,2.82l.42,0A6.6,6.6,0,0,0,977.66,1216.78Z"/><path class="cls-10" d="M958.55,1225.33a10.18,10.18,0,0,0,4,.82h-8c-6.33,0-11.47-5.86-11.47-13.06s5.14-13.06,11.47-13.06h8a10.18,10.18,0,0,0-4,.82l-.26.12c-4.23,1.92-7.21,6.63-7.21,12.12S954.19,1223.48,958.55,1225.33Z"/><polygon class="cls-12" points="946.73 1237.07 933.66 1233.78 933.65 1233.78 924.62 1231.5 934.69 1208.49 942.57 1227.19 946.73 1237.07"/><polygon class="cls-4" points="962.73 1190.33 934.69 1208.49 932.17 1203.64 958.78 1187.1 962.73 1190.33"/><polygon class="cls-7" points="934.69 1208.49 924.62 1231.5 932.17 1203.64 934.69 1208.49"/><path class="cls-11" d="M965.34,1226l-18.61,11.09-4.16-9.88-7.88-18.7,28-18.16,1.28,9.81h-.1a8.71,8.71,0,0,0-1.36-.1h-8c-6.33,0-11.47,5.86-11.47,13.06a13.77,13.77,0,0,0,4.36,10.24,10.55,10.55,0,0,0,7.11,2.82h8A19.19,19.19,0,0,0,965.34,1226Z"/><path class="cls-2" d="M610.73,891S598.06,905.57,583,947.1l-.25.87-27,2.72-28.35,2.87,20.29-43.85,4.54-9.8L589.61,889l19.86-5.77Z"/><polygon class="cls-4" points="609.47 883.27 589.61 889.04 552.22 899.91 536.31 901.52 593.06 884.58 593.07 884.58 609.47 883.27"/><polygon class="cls-4" points="552.22 899.91 547.68 909.71 377.21 962.74 368.04 962.74 531.45 913.39 536.31 901.52 552.22 899.91"/><line class="cls-3" x1="609.47" y1="1039.7" x2="609.14" y2="1039.7"/><path class="cls-2" d="M614.78,987.82a242.84,242.84,0,0,0-5.64,51.88l-68.47-.24-79.87-.28V1025l44-19.69,9.37-29.77,6.71-21.35,6.54-.66h0l28.35-2.87,27-2.72,5.91-.6c-8.36,23.46-9.71,38.56-9.71,38.56Z"/><path class="cls-7" d="M583.77,1083s5.79,31.68,14.56,51.23l-14.1-1.78-24.37-3.08-30-3.79-8.39-1.06L512.71,1096l-6.61-21.57-45.3-20.23v-15l79.87.28,68.47.24c0,14,1.46,29.13,5.64,43.31Z"/><polygon class="cls-13" points="609.47 1192.85 598.76 1192.08 598.75 1192.08 535.5 1172.8 553.3 1175.23 595.8 1188.56 595.81 1188.57 609.47 1192.85"/><path class="cls-8" d="M609.47,1178.83v14l-13.66-4.28h0l-42.5-13.33-5.34-11.3-18.1-38.34,30,3.79,24.37,3.08C592.59,1153.8,609.47,1178.83,609.47,1178.83Z"/><polygon class="cls-13" points="553.3 1175.23 535.5 1172.8 530.3 1162.24 366.06 1111.95 378.64 1112.67 528.18 1157.94 547.96 1163.93 553.3 1175.23"/><path class="cls-13" d="M378.64,1098.92v13.75l-12.58-.72v-6.11h7.37S377.86,1102.89,378.64,1098.92Z"/><path class="cls-6" d="M363.18,1013.07v18.16H360c0-8.57-.08-17.53-.36-24.81-.66-16.82-8-30.28-10.82-34.78h0l-11.92-.28c2.67-9.1,11.85-8.62,11.85-8.62a58.08,58.08,0,0,1,5.25,9A95,95,0,0,1,363.18,1013.07Z"/><path class="cls-14" d="M363.18,1042.56V1062s-1.33,20.42-8.63,34c-2.29,4.25-5.16,7.83-8.77,9.89,0,0-5.89-.51-7.19-9.89h9.22c7.28-3.24,11.87-34.25,11.87-34.25s.19-8.27.29-19.14Z"/><path class="cls-4" d="M319.5,1031.23v-24.54s-1.78-23.12-7.94-35.94c-2.22-4.61-5-7.89-8.48-8.28h24.78l.06.06,1.68,1.85,6.34,7s.25.45.67,1.29c2.37,4.73,10.26,22,10.26,41.76,0,6.12.07,11.8.16,16.85Z"/><path class="cls-4" d="M347.81,1054.56s-2.44,25.22-12.25,41.39a34.68,34.68,0,0,1-6.69,8.22l-.47.41H304.23c3.06-.12,5.61-3.65,7.71-8.63,5.21-12.38,7.56-33.71,7.56-33.71v-19.68h27.82C347.56,1050.08,347.81,1054.56,347.81,1054.56Z"/><path class="cls-14" d="M319.5,1042.56v19.68s-2.35,21.33-7.56,33.71c-2.1,5-4.65,8.51-7.71,8.63h-.37s-3.53.81-6-4.74H303a23.11,23.11,0,0,0,2.78-3.89c4-6.81,9.55-21.89,10.15-53.39Z"/><path class="cls-3" d="M303.86,1104.58h.37"/><path class="cls-6" d="M319.5,1006.69v24.54H316c-.68-41.9-8.74-56.91-11.3-60.64h0l-10.25-.25a24.6,24.6,0,0,1,7.31-7.87h1.38c3.47.39,6.26,3.67,8.48,8.28C317.72,983.57,319.5,1006.69,319.5,1006.69Z"/><path class="cls-2" d="M360,1042.56c-.1,10.87-.29,19.14-.29,19.14s-4.59,31-11.87,34.25H335.56c9.81-16.17,12.25-41.39,12.25-41.39s-.25-4.48-.49-12Z"/><path class="cls-15" d="M316,1031.23H255.86v-61.8l38.53.91,10.25.25h0C307.21,974.32,315.27,989.33,316,1031.23Z"/><path class="cls-6" d="M423.18,1013.07V1062s-1.33,20.42-8.63,34c-2.29,4.25-5.16,7.83-8.77,9.89V1096h.88c10.74-11.31,12.52-34,12.52-34v-48.9c0-19.13-6.43-32.49-11.48-40l-1.92,0V962.74a58.83,58.83,0,0,1,7.14,10.42A82,82,0,0,1,423.18,1013.07Z"/><path class="cls-2" d="M419.18,1013.07V1062s-1.78,22.67-12.52,34H395.4c7-13.56,7.78-34,7.78-34v-48.9a101,101,0,0,0-8.09-40.33l10.69.25,1.92,0C412.75,980.58,419.18,993.94,419.18,1013.07Z"/><path class="cls-4" d="M403.18,1013.07V1062s-.75,20.42-7.78,34c-.53,1-1.1,2-1.71,3H378.64c-.78,4-5.21,6.92-5.21,6.92H345.78c3.61-2.06,6.48-5.64,8.77-9.89,7.3-13.56,8.63-34,8.63-34v-19.41H392v-11.33H363.18v-18.16A95,95,0,0,0,354,971.76a58.08,58.08,0,0,0-5.25-9h28.43v6.47h16.25c.52,1,1.07,2.23,1.63,3.53A101,101,0,0,1,403.18,1013.07Z"/><path class="cls-2" d="M360,1031.23H347c-.09-5-.16-10.73-.16-16.85,0-19.77-7.89-37-10.26-41.76-.42-.84-.67-1.29-.67-1.29l1,0,11.92.28h0c2.78,4.5,10.16,18,10.82,34.78C360,1013.7,360.05,1022.66,360,1031.23Z"/><rect class="cls-2" x="255.86" y="1031.23" width="136.18" height="11.33"/><line class="cls-3" x1="255.86" y1="1042.56" x2="254.24" y2="1042.56"/><line class="cls-3" x1="255.86" y1="1031.23" x2="255.32" y2="1031.23"/><path class="cls-2" d="M547.68,909.71l-20.29,43.85h0l-6.54.66-6.71,21.35-75.88-1.81a59.89,59.89,0,0,0-7.47-11h-25V973l-10.69-.25c-.56-1.3-1.11-2.48-1.63-3.53H377.21v-6.47Z"/><path class="cls-2" d="M506.1,1074.38l6.61,21.57H439.55c7.3-13.56,8.63-34,8.63-34v-48.9a81.91,81.91,0,0,0-9.93-39.31l75.88,1.81-9.37,29.77-44,19.69v29.12Z"/><path class="cls-8" d="M548,1163.93l-19.78-6-149.54-45.27v-13.75h15.05c.61-.94,1.18-1.94,1.71-3h10.38v9.89h25c3.61-2.06,6.48-5.64,8.77-9.89h73.16l8.76,28.58,8.39,1.06Z"/><path class="cls-4" d="M448.18,1013.07V1062s-1.33,20.42-8.63,34c-2.29,4.25-5.16,7.83-8.77,9.89h-25c3.61-2.06,6.48-5.64,8.77-9.89,7.3-13.56,8.63-34,8.63-34v-48.9a82,82,0,0,0-10.26-39.91,58.83,58.83,0,0,0-7.14-10.42h25a59.89,59.89,0,0,1,7.47,11A81.91,81.91,0,0,1,448.18,1013.07Z"/><polygon class="cls-16" points="133.25 970.67 133.25 1110.56 117.25 1127.15 117.25 954.67 133.25 970.67"/><path class="cls-17" d="M315.94,1042.56c-.6,31.5-6.16,46.58-10.15,53.39a23.11,23.11,0,0,1-2.78,3.89H255.86v-57.28Z"/><polygon class="cls-16" points="255.86 954.67 255.86 1122.11 216.49 1123.54 197.61 1124.23 169.56 1125.25 149.27 1125.99 117.25 1127.15 133.25 1110.56 239.86 1106.68 239.86 970.67 133.25 970.67 117.25 954.67 255.86 954.67"/><polygon class="cls-18" points="239.86 970.67 239.86 1106.68 133.25 1110.56 238.06 1104.68 238.06 972.67 133.25 970.67 239.86 970.67"/><path class="cls-11" d="M133.25,970.67v139.89l104.81-5.88v-132Zm71.27,127.24c-9.41,9.66-24,6-26.64,5.25l-.44-.13a22,22,0,0,1,5.82-43.12c14.24-.14,19.89,5.65,20.22,6l0,0a21.44,21.44,0,0,1,1,32Zm0-83c-9.41,9.66-24,6-26.64,5.25l-.44-.13a22,22,0,0,1,5.82-43.12c14.24-.14,19.89,5.65,20.22,6l0,0a21.44,21.44,0,0,1,1,32Z"/><path class="cls-10" d="M204.52,1014.91c-9.41,9.66-24,6-26.64,5.25l-.44-.13a22,22,0,0,1,5.82-43.12c14.24-.14,19.89,5.65,20.22,6a21.34,21.34,0,0,0-13.55-5h-.19a21.44,21.44,0,0,0-3.2,42.64,21,21,0,0,0,3.2.24A21.36,21.36,0,0,0,204.52,1014.91Z"/><path class="cls-9" d="M203.5,1065.94l0,0a21.34,21.34,0,0,0-13.55-5h-.19a21.44,21.44,0,0,0-3.2,42.64,21,21,0,0,0,3.2.24,21.44,21.44,0,0,0,13.76-37.88ZM202,1093.36a16.42,16.42,0,1,1,4.21-11A16.41,16.41,0,0,1,202,1093.36Z"/><path class="cls-10" d="M204.52,1097.91c-9.41,9.66-24,6-26.64,5.25l-.44-.13a22,22,0,0,1,5.82-43.12c14.24-.14,19.89,5.65,20.22,6a21.34,21.34,0,0,0-13.55-5h-.19a21.44,21.44,0,0,0-3.2,42.64,21,21,0,0,0,3.2.24A21.36,21.36,0,0,0,204.52,1097.91Z"/><polygon class="cls-19" points="447.05 1657.64 447.01 1658.27 420.35 1641.21 418.52 1639.78 78.42 1256.13 102.87 1250.74 150.96 1308.12 421.97 1631.5 447.05 1657.64"/><polygon class="cls-20" points="63.32 1231.32 63.32 1239.79 43.24 1231.5 43.24 1231.49 23.14 1209.21 60.08 1227.8 60.08 1229.16 63.32 1231.32"/><path class="cls-21" d="M29.34,1186.74l-6.2,22.47V1087.75c1.28,6.29,2.83,10,4.51,10l.4.07Z"/><path class="cls-21" d="M28.8,894.11v88.72H27.65c-1.68,0-3.23,3.67-4.51,10V871.86Z"/><polygon class="cls-11" points="523.9 697.93 515.64 701.18 196.53 826.83 170.1 809.57 478.87 666.38 517.06 693.14 523.9 697.93"/><polygon class="cls-16" points="493.7 651.55 461.34 658.02 444.91 425.99 446.15 424.53 461.34 414.24 493.7 651.55"/><polygon class="cls-19" points="529.83 665.03 493.7 651.55 461.34 414.24 481.3 432.04 529.83 665.03"/><path class="cls-22" d="M519,714,216.13,829.7l-19.6-2.87L515.64,701.18a25.3,25.3,0,0,0,1.75,9.47A25.62,25.62,0,0,0,519,714Z"/><polygon class="cls-19" points="444.91 425.99 421.97 453.07 143.68 781.52 101.61 833.21 76.26 829.7 424.16 437.13 424.17 437.13 444.62 425.57 444.87 425.4 444.91 425.99"/><polygon class="cls-23" points="397.71 457.02 59.9 837.79 59.9 853.86 23.14 871.86 391.77 461.7 397.71 457.02"/><polygon class="cls-16" points="493.16 1450.29 463.68 1668.94 448.68 1659.34 447.05 1657.64 462.42 1443.82 493.16 1450.29"/><polygon class="cls-19" points="530.18 1437.88 484.26 1648.49 463.68 1668.94 493.16 1450.29 530.18 1437.88"/><path class="cls-24" d="M509.73,1382.2a24.74,24.74,0,0,0-6.84,13.13L197.61,1262.06l18.88-4.31Z"/><polygon class="cls-18" points="216.49 1123.54 216.49 1257.75 197.61 1262.06 197.61 1124.23 216.49 1123.54"/><line class="cls-3" x1="448.68" y1="1659.34" x2="447.01" y2="1658.27"/><polygon class="cls-18" points="216.13 829.7 216.13 954.67 196.53 954.67 196.53 826.83 216.13 829.7"/><polygon class="cls-19" points="530.24 665.87 527.31 680.71 523.9 697.93 517.06 693.14 478.87 666.38 493.7 651.55 529.83 665.03 530.24 665.87"/><path class="cls-22" d="M536.05,677.84a22.69,22.69,0,0,0-5.68,1.4,22.13,22.13,0,0,0-3.06,1.47l2.93-14.84Z"/><polygon class="cls-11" points="196.53 826.83 196.53 954.67 167.99 954.67 170.1 809.57 196.53 826.83"/><polygon class="cls-16" points="478.87 666.38 170.1 809.57 167.99 954.67 117.25 954.67 103.7 938.76 101.61 833.21 448.94 675.28 478.87 666.38"/><polygon class="cls-16" points="493.7 651.55 478.87 666.38 448.94 675.28 461.34 658.02 493.7 651.55"/><polygon class="cls-23" points="461.34 658.02 448.94 675.28 409.03 639.14 418.73 629.97 461.34 658.02"/><polygon class="cls-23" points="461.34 658.02 418.73 629.97 421.67 469.49 421.97 453.07 444.91 425.99 461.34 658.02"/><polygon class="cls-23" points="448.94 675.28 101.61 833.21 143.68 781.52 175.73 764.32 175.74 764.32 409.03 639.14 448.94 675.28"/><polygon class="cls-25" points="421.67 469.49 418.73 629.97 409.03 639.14 175.74 764.32 421.67 469.49"/><polygon class="cls-26" points="421.97 453.07 421.67 469.49 175.74 764.32 175.73 764.32 143.68 781.52 421.97 453.07"/><polygon class="cls-19" points="103.7 938.76 77.99 908.57 76.26 829.7 101.61 833.21 103.7 938.76"/><polygon class="cls-23" points="77.99 908.57 72.22 901.79 59.9 901.79 59.9 837.79 76.26 829.7 77.99 908.57"/><polygon class="cls-23" points="424.16 437.13 76.26 829.7 59.9 837.79 397.71 457.02 397.75 456.98 419.81 439.59 424.16 437.13"/><polygon class="cls-21" points="59.9 853.86 59.9 864.37 57.52 865.52 57.52 883.32 28.8 894.11 23.14 871.86 59.9 853.86"/><polygon class="cls-26" points="59.9 864.37 59.9 887.53 39.18 895.59 28.8 894.11 57.52 883.32 57.52 865.52 59.9 864.37"/><polygon class="cls-26" points="39.18 895.59 38.53 948.04 38.53 948.05 29.38 982.83 28.8 982.83 28.8 894.11 39.18 895.59"/><polygon class="cls-27" points="55.54 941.93 42.68 946.55 55.23 901.79 55.23 940.89 55.54 941.93"/><polygon class="cls-28" points="117.25 954.67 90.01 958.96 55.23 901.79 72.22 901.79 77.99 908.57 103.7 938.76 117.25 954.67"/><path class="cls-27" d="M50.73,989.7l-.81,100.68-11.41,38.73-10.08-31.26,9.56,1.73h0a1.42,1.42,0,0,0,.45.08c4.87,0,8.82-26.16,8.82-58.42s-4-58.41-8.82-58.41H29.38l9.15-34.78Z"/><path class="cls-6" d="M32.82,996.29c-1-6.24-2.3-10.64-3.7-12.49a4.26,4.26,0,0,0-.32-.38,1.6,1.6,0,0,0-1.15-.59c-1.68,0-3.23,3.67-4.51,10-2.12,10.34-3.51,27.74-3.51,47.48s1.39,37.14,3.51,47.48c1.28,6.29,2.83,10,4.51,10a1.09,1.09,0,0,0,.4-.07,1.11,1.11,0,0,0,.27-.13c1.63-1,3.12-5.4,4.33-12.28,1.85-10.53,3-26.75,3-45C35.68,1022.62,34.57,1006.83,32.82,996.29Zm-1.07,83v0c-1.06,5.71-2.35,9.25-3.76,9.75a1,1,0,0,1-.34.06c-1.73,0-3.3-4.61-4.51-12.22-1.41-8.95-2.3-22-2.3-36.6s.89-27.66,2.3-36.6c1.21-7.61,2.78-12.23,4.51-12.23a1,1,0,0,1,.34.06c1.47.52,2.83,4.4,3.91,10.59h0c1.57,8.95,2.57,22.72,2.57,38.17C34.47,1056.2,33.41,1070.35,31.75,1079.26Z"/><polygon class="cls-28" points="102.87 1150.4 102.87 1145.39 92.44 1145.39 78.42 1165.16 78.42 1176.67 55.41 1176.67 89.92 1122.38 117.25 1127.15 102.87 1150.4"/><polygon class="cls-28" points="59.9 887.53 59.9 901.79 55.23 901.79 42.68 946.55 38.53 948.04 39.18 895.59 59.9 887.53"/><polygon class="cls-28" points="68.17 983.77 50.73 989.7 38.53 948.05 38.53 948.04 42.68 946.55 55.54 941.93 68.17 983.77"/><polygon class="cls-27" points="90.01 958.96 68.17 983.77 55.54 941.93 55.23 940.89 55.23 901.79 90.01 958.96"/><polygon class="cls-28" points="117.25 954.67 117.25 1127.15 89.92 1122.38 90.01 958.96 117.25 954.67"/><polygon class="cls-27" points="90.01 958.96 89.92 1122.38 68.17 1095.68 68.17 983.77 90.01 958.96"/><polygon class="cls-27" points="89.92 1122.38 55.41 1176.67 55.23 1136.94 68.17 1095.68 89.92 1122.38"/><polygon class="cls-27" points="55.41 1176.67 43.04 1131.24 55.23 1136.94 55.41 1176.67"/><polygon class="cls-28" points="68.17 983.77 68.17 1095.68 49.92 1090.38 50.73 989.7 68.17 983.77"/><polygon class="cls-28" points="68.17 1095.68 55.23 1136.94 43.04 1131.24 38.51 1129.12 38.51 1129.11 49.92 1090.38 68.17 1095.68"/><polygon class="cls-23" points="418.52 1639.78 394.46 1620.98 43.24 1231.5 63.32 1239.79 63.32 1246.78 78.42 1256.13 418.52 1639.78"/><polygon class="cls-19" points="102.87 1145.39 102.87 1250.74 78.42 1256.13 78.42 1165.16 92.44 1145.39 102.87 1145.39"/><polygon class="cls-28" points="60.08 1176.67 60.08 1194.91 38.53 1186.02 38.51 1129.12 43.04 1131.24 55.41 1176.67 60.08 1176.67"/><polygon class="cls-21" points="60.08 1200.76 60.08 1227.8 23.14 1209.21 29.34 1186.74 60.08 1200.76"/><polygon class="cls-29" points="421.62 1613.93 182.14 1325.72 411.18 1455.04 418.73 1467.55 421.62 1613.93"/><polygon class="cls-26" points="421.97 1631.5 150.96 1308.12 182.14 1325.72 421.62 1613.93 421.97 1631.5"/><polygon class="cls-23" points="462.42 1443.82 418.73 1467.55 411.18 1455.04 448.68 1427.64 462.42 1443.82"/><polygon class="cls-23" points="477.52 1433.57 448.68 1427.64 151.13 1275.43 169.56 1279.42 477.52 1433.57"/><polygon class="cls-23" points="448.68 1427.64 411.18 1455.04 182.14 1325.72 150.96 1308.12 102.87 1250.74 151.12 1275.42 151.13 1275.43 448.68 1427.64"/><polygon class="cls-23" points="462.42 1443.82 447.05 1657.64 421.97 1631.5 421.62 1613.93 418.73 1467.55 462.42 1443.82"/><polygon class="cls-11" points="524.98 1404.98 509.21 1415.64 479.53 1435.71 477.52 1433.57 169.56 1279.42 197.61 1262.06 502.89 1395.33 502.89 1395.34 524.98 1404.98"/><polygon class="cls-11" points="197.61 1124.23 197.61 1262.06 169.56 1279.42 169.56 1125.25 197.61 1124.23"/><polygon class="cls-30" points="151.13 1275.43 151.12 1275.42 102.87 1250.74 102.87 1150.4 117.25 1127.15 149.27 1125.99 151.13 1275.43"/><polygon class="cls-16" points="169.56 1125.25 169.56 1279.42 151.13 1275.43 149.27 1125.99 169.56 1125.25"/><polygon class="cls-22" points="535.01 1427.11 530.67 1436.53 528.45 1424.19 529.27 1424.56 535.01 1427.11"/><polygon class="cls-19" points="530.67 1436.53 530.3 1437.34 530.18 1437.87 530.18 1437.88 493.16 1450.29 479.53 1435.71 509.21 1415.64 524.98 1404.98 528.45 1424.19 530.67 1436.53"/><polygon class="cls-18" points="493.16 1450.29 462.42 1443.82 448.68 1427.64 477.52 1433.57 479.53 1435.71 493.16 1450.29"/><path class="cls-10" d="M658.27,1461.9c-9.81,13.06-26.23,8.34-26.23,8.34l-97-43.13-5.74-2.55-.82-.37L525,1405l-22.09-9.64h0a24.74,24.74,0,0,1,6.84-13.13,25.1,25.1,0,0,1,8.37-5.55c10.66-4.57,18.68-.79,18.68-.79l113.86,45.84a25.36,25.36,0,0,1,14.13,22.12A24.89,24.89,0,0,0,615,1445.1a24.6,24.6,0,0,0,2.81,11.47,24.88,24.88,0,0,0,40.44,5.33Z"/><path class="cls-9" d="M664.77,1443.82A24.89,24.89,0,0,0,615,1445.1a24.6,24.6,0,0,0,2.81,11.47,24.89,24.89,0,0,0,47-11.47C664.8,1444.67,664.79,1444.24,664.77,1443.82ZM639.91,1465a19.89,19.89,0,0,1-2-39.68,18.67,18.67,0,0,1,2-.1,19.89,19.89,0,1,1,0,39.78Z"/><path class="cls-31" d="M659.8,1445.1a19.88,19.88,0,0,1-35.89,11.79,19.88,19.88,0,0,0,14-31.58,18.67,18.67,0,0,1,2-.1A19.91,19.91,0,0,1,659.8,1445.1Z"/><path class="cls-5" d="M641.8,1437.1a19.92,19.92,0,0,1-17.89,19.79A19.71,19.71,0,0,1,620,1445.1a19.91,19.91,0,0,1,17.9-19.79A19.77,19.77,0,0,1,641.8,1437.1Z"/><path class="cls-31" d="M206.18,1082.38a16.42,16.42,0,0,1-26.67,12.85,14.73,14.73,0,0,0,6.69,1.59,14.9,14.9,0,1,0-3.15-29.45,16.25,16.25,0,0,1,6.69-1.43,16.45,16.45,0,0,1,16.44,16.44Z"/><path class="cls-5" d="M201.09,1081.92a14.92,14.92,0,0,1-14.89,14.9,14.73,14.73,0,0,1-6.69-1.59,16.43,16.43,0,0,1,3.54-27.86,14.88,14.88,0,0,1,18,14.55Z"/><path class="cls-9" d="M203.5,982.94l0,0a21.34,21.34,0,0,0-13.55-5h-.19a21.44,21.44,0,0,0-3.2,42.64,21,21,0,0,0,3.2.24,21.44,21.44,0,0,0,13.76-37.88ZM202,1010.36a16.42,16.42,0,1,1,4.21-11A16.41,16.41,0,0,1,202,1010.36Z"/><path class="cls-31" d="M206.18,999.38a16.42,16.42,0,0,1-26.67,12.85,14.73,14.73,0,0,0,6.69,1.59,14.9,14.9,0,1,0-3.15-29.45,16.25,16.25,0,0,1,6.69-1.43,16.45,16.45,0,0,1,16.44,16.44Z"/><path class="cls-5" d="M201.09,998.92a14.92,14.92,0,0,1-14.89,14.9,14.73,14.73,0,0,1-6.69-1.59,16.43,16.43,0,0,1,3.54-27.86,14.88,14.88,0,0,1,18,14.55Z"/><path class="cls-10" d="M658.76,682.5,548.18,725.06c-11,4.27-23.37-.67-29.23-11.11a25.62,25.62,0,0,1-1.56-3.3,25.3,25.3,0,0,1-1.75-9.47l8.26-3.25,3.41-17.22a22.13,22.13,0,0,1,3.06-1.47,22.69,22.69,0,0,1,5.68-1.4l.56-.06,99.15-41.23a25.26,25.26,0,0,0-8.79,10,26.5,26.5,0,0,0-2.73,11.77c0,12.21,8.17,22.43,19.09,25a22.77,22.77,0,0,0,5.38.63c13.52,0,24.47-11.47,24.47-25.62A24.45,24.45,0,0,1,658.76,682.5Z"/><path class="cls-9" d="M648.71,632.67a23.66,23.66,0,0,0-4.79.49h0l-8.14,3.38a25.26,25.26,0,0,0-8.79,10,26.5,26.5,0,0,0-2.73,11.77c0,12.21,8.17,22.43,19.09,25a22.77,22.77,0,0,0,5.38.63c13.52,0,24.47-11.47,24.47-25.62S662.23,632.67,648.71,632.67Zm0,46.24c-.35,0-.69,0-1,0-10.26-.57-18.44-9.59-18.44-20.59a21.36,21.36,0,0,1,4-12.5h0a19.09,19.09,0,0,1,15.47-8.12c10.74,0,19.47,9.25,19.47,20.62S659.45,678.91,648.71,678.91Z"/><path class="cls-31" d="M668.18,658.29c0,11.37-8.73,20.62-19.47,20.62-.35,0-.69,0-1,0a21.27,21.27,0,0,0,4-12.5c0-11-8.18-20-18.44-20.59a19.09,19.09,0,0,1,15.47-8.12C659.45,637.67,668.18,646.92,668.18,658.29Z"/><path class="cls-5" d="M651.68,666.38a21.27,21.27,0,0,1-4,12.5c-10.26-.57-18.44-9.59-18.44-20.59a21.36,21.36,0,0,1,4-12.5h0C643.5,646.36,651.68,655.37,651.68,666.38Z"/><path class="cls-32" d="M31.9,1002.1a302.85,302.85,0,0,0-2.27,39.14,308.51,308.51,0,0,0,2.12,38v0c-1.06,5.71-2.35,9.25-3.76,9.75a1,1,0,0,1-.34.06c-1.73,0-3.3-4.61-4.51-12.22-1.41-8.95-2.3-22-2.3-36.6s.89-27.66,2.3-36.6c1.21-7.61,2.78-12.23,4.51-12.23a1,1,0,0,1,.34.06c1.47.52,2.83,4.4,3.91,10.59Z"/><path class="cls-15" d="M34.47,1040.27c0,15.93-1.06,30.08-2.72,39a308.51,308.51,0,0,1-2.12-38,302.85,302.85,0,0,1,2.27-39.14C33.47,1011.05,34.47,1024.82,34.47,1040.27Z"/><path class="cls-33" d="M47.27,1041.24c0,32.26-4,58.42-8.82,58.42l-.45-.08h0l-9.56-1.73-.38-.07v-.14a1.11,1.11,0,0,0,.27-.13c1.63-1,3.12-5.4,4.33-12.28,1.85-10.53,3-26.75,3-45,0-17.65-1.11-33.44-2.86-44-1-6.24-2.3-10.64-3.7-12.49a4.26,4.26,0,0,0-.32-.38,1.6,1.6,0,0,0-1.15-.59h10.8C43.32,982.83,47.27,1009,47.27,1041.24Z"/><polygon class="cls-23" points="78.42 1176.67 78.42 1256.13 63.32 1246.78 63.32 1231.32 60.08 1229.16 60.08 1176.67 78.42 1176.67"/><polygon class="cls-26" points="60.08 1194.91 60.08 1200.76 29.34 1186.74 28.05 1097.78 28.43 1097.85 38.51 1129.11 38.51 1129.12 38.53 1186.02 60.08 1194.91"/><path class="cls-17" d="M1135.56,1053.31a45.52,45.52,0,0,1-5.33,19.34c-3,5.52-8.68,12-14.73,17v1.77l-2.47.16h0l-36,2.43,14.29-22.68Z"/><path class="cls-2" d="M1135.62,1024.65v4.49l-44.35-20L1073,980.87l42.47,1.23.67,0c7.72,6.63,18,19.42,19.41,41.12C1135.61,1023.71,1135.62,1024.19,1135.62,1024.65Z"/><line class="cls-3" x1="1134.65" y1="1094.98" x2="1134.62" y2="1094.98"/><path class="cls-4" d="M1190.24,1034.2V1041l10.25.06v1.08a68.27,68.27,0,0,1-12.67,40.11,51.57,51.57,0,0,1-4,4.94,39,39,0,0,1-4.76,4.44,29.62,29.62,0,0,1-4.12,2.72h-28.64a29,29,0,0,0,6.64-3.38,31.79,31.79,0,0,0,5.95-5.27c9.92-11.15,11.68-27.21,11.68-27.21s2-7.42.54-39.37c-.68-14.75-6.33-25-12.22-31.8a44.8,44.8,0,0,0-14-11.08h29a37.79,37.79,0,0,1,3.68,2.32c1.23.86,2.7,2,4.3,3.34h0c7.64,6.54,18.1,18.87,18.7,37.75v14.56Z"/><path class="cls-34" d="M1216.61,1041.13c-.56,13.34-4.87,49.58-34.84,54.47l-2.73-4a39,39,0,0,0,4.76-4.44c19.92-7.69,23.16-36,23.16-36v-10.12Z"/><path class="cls-4" d="M1231.21,1041.21a79.9,79.9,0,0,1-5.63,28c-3,7.55-7.58,15.44-14.29,20.63a27.31,27.31,0,0,1-14.85,5.77h-14.67c30-4.89,34.28-41.13,34.84-54.47Z"/><path class="cls-6" d="M1216.75,1034.2H1207v-9.71c0-27.74-24.41-42.16-25.17-42.6h0c-1.6-1.37-3.07-2.48-4.3-3.34l3.06-2.32C1215.78,983.24,1217,1024.55,1216.75,1034.2Z"/><path class="cls-4" d="M1231.23,1027.82v6.38h-14.48c.21-9.65-1-51-36.22-58h20a36.9,36.9,0,0,1,10.28,5.66c7.06,5.31,15.74,15.06,19.17,32.08A70,70,0,0,1,1231.23,1027.82Z"/><path class="cls-15" d="M1286.4,1034.2h-55.17v-6.38a70,70,0,0,0-1.29-13.86c-3.43-17-12.11-26.77-19.17-32.08h48.77S1287.35,993.4,1286.4,1034.2Z"/><path class="cls-17" d="M1286,1041.51c-3.13,33.35-20.12,44.9-26.23,48l-18.8.12-29.64.2c6.71-5.19,11.26-13.08,14.29-20.63a79.9,79.9,0,0,0,5.63-28Z"/><path class="cls-6" d="M1290.2,1041.54c-1.33,14.41-7.57,53.26-36.32,54.68a33.36,33.36,0,0,1-6.81-1.88h0A16.26,16.26,0,0,1,1243,1092a7.36,7.36,0,0,1-2-2.41l18.8-.12c6.11-3.1,23.1-14.65,26.23-48Z"/><path class="cls-33" d="M1325.86,1034.2h-35.27c0-8.18-1.29-39.06-21.43-52.32a36.81,36.81,0,0,0-15.28-5.66,10.26,10.26,0,0,0-2.31.15A210.48,210.48,0,0,1,1278,968a22.25,22.25,0,0,1,15,1.49l.47.23C1305.49,975.62,1325.26,991.73,1325.86,1034.2Z"/><path class="cls-33" d="M1325.75,1041.73c-1.85,40.79-24.1,59.12-32.23,61.61a7.36,7.36,0,0,1-1,.25,13.86,13.86,0,0,1-3,.12c-5.38-.33-29.85-2.2-42.46-9.37a33.36,33.36,0,0,0,6.81,1.88c28.75-1.42,35-40.27,36.32-54.68h3.32Z"/><path class="cls-2" d="M1207,1041.07v10.12s-3.24,28.29-23.16,36a51.57,51.57,0,0,0,4-4.94,68.27,68.27,0,0,0,12.67-40.11V1041Z"/><path class="cls-2" d="M1207,1024.49v9.71h-6.47v-14.56c-.6-18.88-11.06-31.21-18.7-37.75C1182.55,982.33,1207,996.75,1207,1024.49Z"/><polygon class="cls-2" points="1344.76 1034.2 1344.76 1041.84 1325.75 1041.73 1293.52 1041.55 1290.2 1041.54 1285.96 1041.51 1231.21 1041.21 1216.61 1041.13 1206.96 1041.07 1200.49 1041.04 1190.24 1040.98 1190.24 1034.2 1344.76 1034.2"/><path class="cls-27" d="M1409.74,977.74v122.79l-.29.11-83.57,32-8.63,3.3-23.73,9.09v-41.69c8.13-2.49,30.38-20.82,32.23-61.61l19,.11v-7.64h-18.9c-.6-42.47-20.37-58.58-32.34-64.46V932l24.63,9.69,7.75,3,83.44,32.84Z"/><polygon class="cls-28" points="1423.14 976.21 1409.34 977.58 1325.9 944.74 1325.94 940.33 1423.14 976.21"/><polygon class="cls-28" points="1318.15 937.46 1318.15 941.69 1293.52 932 1303.36 932 1318.15 937.46"/><path class="cls-6" d="M1286.4,1034.2c.95-40.8-26.86-52.32-26.86-52.32h-18.88l0,0a54.44,54.44,0,0,1,7.71-4.12h0q1.53-.69,3.15-1.35h0a10.26,10.26,0,0,1,2.31-.15,36.81,36.81,0,0,1,15.28,5.66c20.14,13.26,21.45,44.14,21.43,52.32Z"/><path class="cls-27" d="M1293.52,932v37.74l-.47-.23a22.25,22.25,0,0,0-15-1.49,210.48,210.48,0,0,0-26.44,8.35h0q-1.62.66-3.15,1.35l.8-.81,9.26-9.39,7.55-7.65Z"/><polygon class="cls-21" points="1266.01 905.55 1266.01 959.88 1258.46 967.53 1258.46 917.79 1266.01 905.55"/><polygon class="cls-26" points="1326.36 887.95 1318.15 895.5 1119.68 543.14 1115.72 529.12 1326.36 887.95"/><polygon class="cls-26" points="1326.36 887.95 1325.94 940.33 1325.9 944.74 1318.15 941.69 1318.15 895.5 1326.36 887.95"/><polygon class="cls-16" points="1119.68 543.14 1073.3 559.68 1067.9 545.3 1115.72 529.12 1119.68 543.14"/><polygon class="cls-9" points="1318.15 895.5 1318.15 937.46 1303.36 932 1293.52 932 1266.01 959.88 1266.01 897.3 1318.15 895.5"/><polygon class="cls-21" points="1266.01 897.3 1266.01 905.55 1258.46 917.79 1188.56 922.51 1192.07 899.29 1263.28 892.52 1266.01 897.3"/><polygon class="cls-35" points="1263.28 892.52 1192.07 899.29 1180.53 883.92 1254.52 877.17 1263.28 892.52"/><polygon class="cls-23" points="1318.15 895.5 1266.01 897.3 1263.28 892.52 1254.52 877.17 1252.35 873.37 1248.96 867.42 1073.3 559.68 1119.68 543.14 1318.15 895.5"/><polygon class="cls-16" points="1499.27 987.28 1499.27 1089.21 1491.77 1102.24 1491.77 1102.25 1490.91 1103.74 1490.91 973.52 1492.78 976.6 1499.27 987.28"/><polygon class="cls-26" points="1101.79 928.38 1101.79 953.32 1096.13 951.14 1096.13 928.76 1101.79 928.38"/><path class="cls-28" d="M1258.46,917.79v49.74l-9.26,9.39-.8.81h0a54.44,54.44,0,0,0-7.71,4.12l0,0h-29.89a36.9,36.9,0,0,0-10.28-5.66h-20l-3.06,2.32a37.79,37.79,0,0,0-3.68-2.32h-14.92v-.9l-57.08-22V928.38l86.77-5.87Z"/><polygon class="cls-21" points="1096.13 928.76 1096.13 951.14 1080.76 945.22 1080.76 909.88 1096.13 928.76"/><polygon class="cls-21" points="1192.07 899.29 1188.56 922.51 1101.79 928.38 1096.13 928.76 1080.76 909.88 1192.07 899.29"/><polygon class="cls-35" points="1192.07 899.29 1080.76 909.88 1084.79 900.18 1088.04 892.36 1088.74 892.3 1088.75 892.3 1180.53 883.92 1192.07 899.29"/><polygon class="cls-23" points="1088.74 892.3 1088.04 892.36 1084.79 900.18 985.56 553.21 995.81 570.65 1088.74 892.3"/><polygon class="cls-36" points="1073.3 585.21 1020.2 603.6 1014.15 605.7 995.81 570.65 1067.9 545.3 1073.3 585.21"/><polygon class="cls-36" points="1248.96 867.42 1240.66 868.21 1073.3 585.21 1067.9 545.3 1073.3 559.68 1248.96 867.42"/><polygon class="cls-37" points="1240.66 868.21 1100.26 881.66 1020.2 603.6 1073.3 585.21 1240.66 868.21"/><polygon class="cls-36" points="1252.35 873.37 1182.66 879.73 1088.04 888.36 1093.79 883.27 1014.15 605.7 995.81 570.65 1088.74 892.3 1088.75 892.3 1180.53 883.92 1254.52 877.17 1252.35 873.37"/><polygon class="cls-26" points="1252.35 873.37 1182.66 879.73 1088.04 888.36 1093.79 883.27 1014.15 605.7 1020.2 603.6 1100.26 881.66 1240.66 868.21 1248.96 867.42 1252.35 873.37"/><polygon class="cls-16" points="1072.2 515.94 1059.96 526.87 985.56 553.21 1000.67 541.52 1072.2 515.94"/><polygon class="cls-16" points="1126.6 496.49 1112.49 508.27 1059.96 526.87 1072.2 515.94 1126.6 496.49"/><polygon class="cls-23" points="2163.18 776.96 2138.96 779.35 1115.72 529.12 1112.49 508.27 2163.18 776.96"/><polygon class="cls-16" points="2200.08 773.32 2163.18 776.96 1112.49 508.27 1126.6 496.49 2200.08 773.32"/><polygon class="cls-16" points="2223.6 805.52 2213.88 812 2214.96 806.37 2223.6 805.52"/><polygon class="cls-23" points="1067.9 545.3 995.81 570.65 985.56 553.21 1059.96 526.87 1067.9 545.3"/><polygon class="cls-23" points="1115.72 529.12 1067.9 545.3 1059.96 526.87 1112.49 508.27 1115.72 529.12"/><polygon class="cls-26" points="1977.92 763.73 1965.52 772.89 1501.7 826.17 1493.41 827.12 1475.81 829.14 1459.63 831 1326.13 846.33 1322.25 846.78 1328.58 839.41 1977.92 763.73"/><polygon class="cls-26" points="1328.58 839.41 1322.25 846.78 1153.83 553.21 1153.84 553.21 1165.23 559.8 1328.58 839.41"/><polygon class="cls-37" points="1977.92 763.73 1328.58 839.41 1165.23 559.8 1165.16 559.68 1977.92 763.73"/><polygon class="cls-23" points="1326.36 887.95 1115.72 529.12 1153.83 553.21 1322.25 846.78 1325.01 874.39 1326.36 887.95"/><path class="cls-35" d="M2213.88,812,1501.7,873l-8.1.69-17.79,1.52-16.18,1.39L1326.36,888,1325,874.39l-2.76-27.61,3.88-.45L1459.63,831l16.18-1.86,17.6-2,8.29-1,463.82-53.28,94.05,14.81c-4.55,2.27-7.83,8.75-7.83,16.39,0,9.53,5.11,17.25,11.41,17.25a7.64,7.64,0,0,0,1.44-.14l127.72-12.6h0Z"/><path class="cls-26" d="M2107.25,782.48l-44.1,4.35a7.81,7.81,0,0,0-3.57.87h0l-94.05-14.81,12.4-9.16h0Z"/><polygon class="cls-16" points="1501.7 1103.74 1501.7 1207.94 1490.94 1206.89 1491.76 1103.74 1501.7 1103.74"/><polygon class="cls-16" points="1501.7 872.95 1501.7 973.7 1492.8 973.55 1493.6 873.64 1501.7 872.95"/><polygon class="cls-11" points="1493.6 873.64 1492.8 973.55 1490.91 973.52 1475.81 974.12 1475.81 875.16 1493.6 873.64"/><line class="cls-3" x1="1479.05" y1="1205.43" x2="1475.81" y2="1205.43"/><polygon class="cls-18" points="1475.81 875.16 1475.81 974.12 1459.63 974.76 1459.63 876.55 1475.81 875.16"/><polygon class="cls-16" points="1569.65 974.86 1569.65 1103.74 1561.83 1090.02 1561.83 987.55 1569.65 974.86"/><polygon class="cls-18" points="1561.83 987.55 1561.83 1090.02 1557.25 1089.96 1557.25 987.53 1561.83 987.55"/><path class="cls-11" d="M1501.7,987.29h-2.43v101.93l2.43,0,55.55.72V987.53Zm46.83,96.84,0,0c-4.17,4.54-24.65,1.8-24.65,1.8-6.8,0-12.31-7.58-12.31-16.92s5.51-16.92,12.31-16.92c0,0,20.61-1,24.67,3.43,3.94,2.69,6.63,8.08,6.63,14.3S1552.47,1081.45,1548.53,1084.13Zm0-62,0,0c-4.17,4.54-24.65,1.8-24.65,1.8-6.8,0-12.31-7.58-12.31-16.92s5.51-16.92,12.31-16.92c0,0,20.61-1,24.67,3.43,3.94,2.69,6.63,8.08,6.63,14.3S1552.47,1019.45,1548.53,1022.13Z"/><polygon class="cls-16" points="1569.65 1103.74 1490.91 1103.74 1491.77 1102.25 1491.77 1102.24 1499.27 1089.21 1501.7 1089.24 1557.25 1089.96 1561.83 1090.02 1569.65 1103.74"/><polygon class="cls-16" points="1569.65 974.86 1561.83 987.55 1557.25 987.53 1501.7 987.29 1499.27 987.28 1492.78 976.6 1490.91 973.52 1492.8 973.55 1501.7 973.7 1569.65 974.86"/><path class="cls-9" d="M2272.75,766.15l-1.44.14c-5.62,1.07-10,8.33-10,17.12,0,9.53,5.11,17.26,11.41,17.26s11.41-7.73,11.41-17.26S2279.05,766.15,2272.75,766.15Zm0,30.52c-3.5,0-7.41-5.45-7.41-13.26s3.91-13.26,7.41-13.26,7.41,5.45,7.41,13.26S2276.26,796.67,2272.75,796.67Z"/><path class="cls-31" d="M2280.16,783.41c0,7.81-3.9,13.26-7.41,13.26s-7.41-5.45-7.41-13.26,3.91-13.26,7.41-13.26S2280.16,775.6,2280.16,783.41Z"/><polygon class="cls-23" points="2138.96 779.35 2107.25 782.48 1977.93 763.73 1977.92 763.73 1165.16 559.68 1165.23 559.8 1153.84 553.21 1153.83 553.21 1115.72 529.12 2138.96 779.35"/><polygon class="cls-23" points="2214.96 806.37 2213.88 812 2192.33 808.6 2214.96 806.37"/><path class="cls-10" d="M2272.75,800.67l-49.11,4.84h0l-8.64.85-22.63,2.23h0l-127.72,12.6a7.64,7.64,0,0,1-1.44.14c-6.3,0-11.41-7.72-11.41-17.25,0-7.64,3.28-14.12,7.83-16.39h0a7.81,7.81,0,0,1,3.57-.87l44.1-4.35,31.71-3.13,24.22-2.39,36.9-3.64h0l71.2-7c-5.62,1.07-10,8.33-10,17.12C2261.34,792.94,2266.45,800.67,2272.75,800.67Z"/><polygon class="cls-21" points="1095.59 1126.82 1095.59 1151.14 1081.56 1168.49 1081.56 1132.27 1095.59 1126.82"/><line class="cls-3" x1="1257.79" y1="1107.58" x2="1257.79" y2="1105.79"/><path class="cls-21" d="M1251.76,1101.25l-92.89-3.81v-3.11h16.05a29.62,29.62,0,0,0,4.12-2.72l2.73,4h14.67a27.31,27.31,0,0,0,14.85-5.77l29.64-.2a7.36,7.36,0,0,0,2,2.41Z"/><polygon class="cls-26" points="1102.78 1124.03 1102.78 1151.69 1095.59 1151.14 1095.59 1126.82 1102.78 1124.03"/><polygon class="cls-28" points="1257.79 1107.58 1257.79 1163.64 1190.24 1158.43 1102.78 1151.69 1102.78 1124.03 1158.87 1102.28 1158.87 1097.44 1251.76 1101.25 1257.79 1107.58"/><path class="cls-27" d="M1293.52,1103.34V1145l-27.1-28.41-8.63-9-6-6.33L1243,1092a16.26,16.26,0,0,0,4.08,2.29h0c12.61,7.17,37.08,9,42.46,9.37a13.86,13.86,0,0,0,3-.12A7.36,7.36,0,0,0,1293.52,1103.34Z"/><polygon class="cls-38" points="1256.25 1200.22 1072.4 1520.4 1067.54 1536.04 1075.63 1493.97 1242.97 1215.07 1247.66 1207.25 1249.83 1203.64 1256.25 1200.22"/><polygon class="cls-9" points="1317.25 1139.54 1317.25 1186.83 1266.42 1182.51 1266.42 1116.62 1293.52 1145.03 1301.97 1145.03 1317.25 1139.54"/><polygon class="cls-39" points="1120.94 1536.04 1116.62 1551.68 1067.54 1536.04 1072.4 1520.4 1120.94 1536.04"/><polygon class="cls-28" points="1317.25 1135.94 1317.25 1139.54 1301.97 1145.03 1293.52 1145.03 1317.25 1135.94"/><polygon class="cls-28" points="1423.14 1101.52 1325.88 1136.44 1325.88 1132.64 1409.45 1100.64 1423.14 1101.52"/><polygon class="cls-30" points="1459.63 876.55 1459.63 974.76 1423.14 976.21 1325.94 940.33 1326.36 887.95 1459.63 876.55"/><polygon class="cls-12" points="1490.91 973.52 1490.91 1103.74 1475.81 1103.25 1459.63 1102.72 1423.14 1101.52 1409.45 1100.64 1409.74 1100.53 1409.74 977.74 1409.34 977.58 1423.14 976.21 1459.63 974.76 1475.81 974.12 1490.91 973.52"/><polygon class="cls-26" points="1327.77 1241.6 1164.52 1523.43 1164.51 1523.43 1154.91 1525.79 1321.56 1237.07 1327.77 1241.6"/><polygon class="cls-40" points="1975.77 1323.73 1164.52 1523.43 1327.77 1241.6 1975.77 1323.73"/><polygon class="cls-26" points="1325.88 1132.64 1325.88 1192.85 1116.62 1551.68 1120.94 1536.04 1317.25 1186.83 1317.25 1135.94 1325.88 1132.64"/><polygon class="cls-41" points="1325.88 1192.85 1321.56 1237.07 1154.91 1525.79 1116.62 1551.68 1325.88 1192.85"/><polygon class="cls-26" points="1975.77 1323.73 1327.77 1241.6 1321.56 1237.07 1329.82 1238.05 1329.83 1238.05 1964.71 1313.57 1965.28 1313.48 1975.77 1323.73"/><polygon class="cls-30" points="1459.63 1102.72 1459.63 1205.43 1325.88 1192.85 1325.88 1136.44 1423.14 1101.52 1459.63 1102.72"/><polygon class="cls-18" points="1475.81 1103.25 1475.81 1205.43 1459.63 1205.43 1459.63 1102.72 1475.81 1103.25"/><polygon class="cls-11" points="1491.76 1103.74 1490.94 1206.89 1475.81 1205.43 1475.81 1103.25 1490.91 1103.74 1491.76 1103.74"/><polygon class="cls-42" points="2197.7 1275.32 2168.29 1280.15 2068.65 1296.51 2058.16 1298.23 1965.28 1313.48 1964.71 1313.57 1329.83 1238.05 1329.82 1238.05 1321.56 1237.07 1325.88 1192.85 1459.63 1205.43 1475.81 1205.43 1490.94 1206.89 1501.7 1207.94 2197.7 1275.32"/><line class="cls-3" x1="1181.12" y1="1195.64" x2="1180.53" y2="1196.54"/><polygon class="cls-21" points="1192.31 1178.47 1191.59 1179.57 1081.56 1168.49 1095.59 1151.14 1102.78 1151.69 1190.24 1158.43 1192.31 1178.47"/><polygon class="cls-9" points="1266.42 1116.62 1266.42 1176.04 1257.79 1163.64 1257.79 1107.58 1266.42 1116.62"/><polygon class="cls-21" points="1266.42 1176.04 1266.42 1182.51 1263.93 1186.85 1191.59 1179.57 1192.31 1178.47 1190.24 1158.43 1257.79 1163.64 1266.42 1176.04"/><polygon class="cls-38" points="1317.25 1186.83 1120.94 1536.04 1072.4 1520.4 1256.25 1200.22 1263.93 1186.85 1266.42 1182.51 1317.25 1186.83"/><polygon class="cls-20" points="1263.93 1186.85 1256.25 1200.22 1249.83 1203.64 1181.12 1195.64 1191.59 1179.57 1263.93 1186.85"/><polygon class="cls-20" points="1191.59 1179.57 1181.12 1195.64 1089.3 1184.94 1087 1184.67 1081.56 1168.49 1191.59 1179.57"/><line class="cls-3" x1="1093.97" y1="1192.85" x2="1093.94" y2="1192.94"/><polygon class="cls-41" points="1249.83 1203.64 1247.66 1207.25 1091.54 1190.08 1088.76 1186.77 1087 1184.67 1089.3 1184.94 1181.12 1195.64 1249.83 1203.64"/><polygon class="cls-26" points="1247.66 1207.25 1242.97 1215.07 1099.9 1200.03 1093.94 1192.94 1091.54 1190.08 1247.66 1207.25"/><polygon class="cls-43" points="1242.97 1215.07 1075.63 1493.97 1019.83 1476.81 1099.9 1200.03 1242.97 1215.07"/><polygon class="cls-41" points="1093.94 1192.94 1012.53 1474.56 995.27 1509.61 1088.76 1186.77 1091.54 1190.08 1093.94 1192.94"/><polygon class="cls-26" points="1099.9 1200.03 1019.83 1476.81 1012.53 1474.56 1093.94 1192.94 1099.9 1200.03"/><polygon class="cls-38" points="1088.76 1186.77 995.27 1509.61 985.56 1525.79 1081.56 1184.67 1087 1184.67 1088.76 1186.77"/><polygon class="cls-44" points="1124.98 1585.39 1072.4 1564.74 1059.17 1553.26 1112.04 1572.98 1124.98 1585.39"/><polygon class="cls-44" points="1072.4 1564.74 999.32 1536.04 985.56 1525.79 1059.17 1553.25 1059.17 1553.26 1072.4 1564.74"/><polygon class="cls-39" points="1075.63 1493.97 1067.54 1536.04 995.27 1509.61 1012.53 1474.56 1019.83 1476.81 1075.63 1493.97"/><polygon class="cls-38" points="1067.54 1536.04 1059.17 1553.25 985.56 1525.79 995.27 1509.61 1067.54 1536.04"/><polygon class="cls-38" points="1116.62 1551.68 1112.04 1572.98 1059.17 1553.26 1059.17 1553.25 1067.54 1536.04 1116.62 1551.68"/><polygon class="cls-44" points="2224.4 1288.49 2222.24 1307.37 2194.12 1314.5 2194.11 1314.5 1124.98 1585.39 1112.04 1572.98 2163.79 1310.93 2212.71 1298.74 2212.71 1277.7 2220.66 1285.05 2220.67 1285.05 2224.4 1288.49"/><polygon class="cls-38" points="2212.71 1277.7 2212.71 1288.49 2106.85 1304.23 2106.81 1304.23 1975.77 1323.73 1965.28 1313.48 2058.16 1298.23 2068.65 1296.51 2168.29 1280.15 2197.7 1275.32 2212.71 1277.7"/><polygon class="cls-39" points="2212.71 1288.49 2133.9 1307.41 2133.87 1307.41 1116.62 1551.68 1154.91 1525.79 1164.51 1523.43 1164.52 1523.43 1975.77 1323.73 2106.81 1304.23 2106.85 1304.23 2212.71 1288.49"/><polygon class="cls-38" points="2212.71 1288.49 2212.71 1298.74 2163.79 1310.93 1112.04 1572.98 1116.62 1551.68 2133.87 1307.41 2133.9 1307.41 2212.71 1288.49"/><line class="cls-3" x1="2059.11" y1="1298.62" x2="2058.58" y2="1298.56"/><path class="cls-3" d="M2270.88,1323.52a7.62,7.62,0,0,0,1.79.21Z"/><path class="cls-9" d="M2273.77,1290h-.13l-.53,0h-.44c-6.26,0-11.33,7.56-11.33,16.9,0,8.41,4.12,15.39,9.51,16.69h0l1.79.21c6.25,0,11.32-7.57,11.32-16.9C2284,1298,2279.5,1290.83,2273.77,1290Zm-1.1,29.72c-3.47,0-7.33-5.3-7.33-12.9s3.86-12.9,7.33-12.9,7.32,5.3,7.32,12.9S2276.13,1319.73,2272.67,1319.73Z"/><path class="cls-31" d="M2280,1306.83c0,7.6-3.86,12.9-7.32,12.9s-7.33-5.3-7.33-12.9,3.86-12.9,7.33-12.9S2280,1299.23,2280,1306.83Z"/><path class="cls-10" d="M2261.34,1306.83c0,8.41,4.12,15.39,9.51,16.69l-76.73-9h0l-30.32-3.57-29.89-3.52h0l-27-3.18h0l-43.66-5.14h0l-4-.47h0a8.62,8.62,0,0,1-1-.39c-4.29-2.06-7.35-7.36-7.35-13.58,0-7.76,4.76-14.09,10.75-14.48l.58,0a8.92,8.92,0,0,1,2.26.29h0l103.87,9.71,44.42,4.15,7.94.74h0l52.39,4.89h-.39C2266.41,1289.93,2261.34,1297.49,2261.34,1306.83Z"/><path class="cls-9" d="M1548.53,993.54a10,10,0,0,0-5.67-1.81c-3.6,0-6.84,2-9.1,5.25a19.09,19.09,0,0,0-3.21,10.86,19.4,19.4,0,0,0,2.71,10.09c2.26,3.67,5.72,6,9.6,6a10,10,0,0,0,5.65-1.8l0,0c3.94-2.68,6.63-8.07,6.63-14.29S1552.47,996.23,1548.53,993.54Zm-5.67,26.41c-3.24,0-6.13-2.89-7.49-7a16.57,16.57,0,0,1,.24-11c1.44-3.71,4.19-6.28,7.25-6.28,4.5,0,8.3,5.54,8.3,12.11S1547.36,1020,1542.86,1020Z"/><path class="cls-31" d="M1551.16,1007.84c0,6.56-3.8,12.11-8.3,12.11-3.24,0-6.13-2.89-7.49-7a16.57,16.57,0,0,1,.24-11c1.44-3.71,4.19-6.28,7.25-6.28C1547.36,995.73,1551.16,1001.27,1551.16,1007.84Z"/><path class="cls-10" d="M1542.86,1024a10,10,0,0,0,5.65-1.8c-4.17,4.54-24.65,1.8-24.65,1.8-6.8,0-12.31-7.58-12.31-16.92s5.51-16.92,12.31-16.92c0,0,20.61-1,24.67,3.43a10,10,0,0,0-5.67-1.81c-3.6,0-6.84,2-9.1,5.25a19.09,19.09,0,0,0-3.21,10.86,19.4,19.4,0,0,0,2.71,10.09C1535.52,1021.6,1539,1024,1542.86,1024Z"/><path class="cls-9" d="M1548.53,1055.54a10,10,0,0,0-5.67-1.81c-3.6,0-6.84,2-9.1,5.25a19.09,19.09,0,0,0-3.21,10.86,19.4,19.4,0,0,0,2.71,10.09c2.26,3.67,5.72,6,9.6,6a10,10,0,0,0,5.65-1.8l0,0c3.94-2.68,6.63-8.07,6.63-14.29S1552.47,1058.23,1548.53,1055.54Zm-5.67,26.41c-3.24,0-6.13-2.89-7.49-7a16.57,16.57,0,0,1,.24-11c1.44-3.71,4.19-6.28,7.25-6.28,4.5,0,8.3,5.54,8.3,12.11S1547.36,1082,1542.86,1082Z"/><path class="cls-31" d="M1551.16,1069.84c0,6.56-3.8,12.11-8.3,12.11-3.24,0-6.13-2.89-7.49-7a16.57,16.57,0,0,1,.24-11c1.44-3.71,4.19-6.28,7.25-6.28C1547.36,1057.73,1551.16,1063.27,1551.16,1069.84Z"/><path class="cls-10" d="M1542.86,1086a10,10,0,0,0,5.65-1.8c-4.17,4.54-24.65,1.8-24.65,1.8-6.8,0-12.31-7.58-12.31-16.92s5.51-16.92,12.31-16.92c0,0,20.61-1,24.67,3.43a10,10,0,0,0-5.67-1.81c-3.6,0-6.84,2-9.1,5.25a19.09,19.09,0,0,0-3.21,10.86,19.4,19.4,0,0,0,2.71,10.09C1535.52,1083.6,1539,1086,1542.86,1086Z"/><path class="cls-2" d="M1167.65,1045.78a54.2,54.2,0,0,1-8.78,29.92,6,6,0,0,1-.34.53c-4.1,6-9.69,11.55-17,13.17a77.53,77.53,0,0,0,11.71-16.75,45.68,45.68,0,0,0,5.39-21.63v-26.37c0-.46,0-.94,0-1.41-1.36-20.92-9.9-33.55-16.66-40.37l3.29.09a48,48,0,0,1,13.66,13.45,49.66,49.66,0,0,1,8.72,28.35C1167.63,1034.39,1167.65,1041.1,1167.65,1045.78Z"/><path class="cls-6" d="M1170.55,1058.47s-1.76,16.06-11.68,27.21a31.79,31.79,0,0,1-5.95,5.27,29,29,0,0,1-6.64,3.38h-5l.11-4.68v-.11l.14-.14c7.32-1.62,12.91-7.12,17-13.17a6,6,0,0,0,.34-.53,54.2,54.2,0,0,0,8.78-29.92c0-4.68,0-11.39-.06-21a49.66,49.66,0,0,0-8.72-28.35A48,48,0,0,0,1145.21,983l-3.29-.09h0l-.4-.4v-6.08l3.3-.16a44.8,44.8,0,0,1,14,11.08c5.89,6.78,11.54,17.05,12.22,31.8C1172.58,1051.05,1170.55,1058.47,1170.55,1058.47Z"/><g id="Lumière_bleue" data-name="Lumière bleue" class="cls-45"><rect class="cls-46" x="492.15" y="1444.08" width="39.04" transform="translate(-871.26 784.77) rotate(-45)"/><polygon class="cls-47" points="529.83 665.03 481.3 432.04 461.61 414.48 493.7 651.55 529.83 665.03"/><polygon class="cls-47" points="478.87 666.38 490.14 674.28 523.9 697.93 525.43 690.18 523.9 690.77 528 677.19 530.24 665.87 529.83 665.03 493.7 651.55 478.87 666.38"/><polygon class="cls-47" points="2200.08 773.32 1126.6 496.49 1112.49 508.27 2163.18 776.96 2200.08 773.32"/><path class="cls-47" d="M2192.33,783.41l69-6.45a17,17,0,0,1,3.48-5.94,10.5,10.5,0,0,1,6.34-4.69l.06,0-62,6.12-9.13.9h0l-36.9,3.64C2184.75,774.83,2192.33,783.41,2192.33,783.41Z"/><path class="cls-47" d="M780.27,859.45s-27.65-2.23-78.62,0c-39.18,1.71-76.21,4.38-91.24,5.52a246.18,246.18,0,0,0-17.34,19.61h.09l16.31-1.3h0v.09l1.25-.09,4,26.44s74.94-3.74,99.82,0C714.6,909.71,742.39,867.74,780.27,859.45Z"/><path class="cls-47" d="M526.28,689.85l98.82-38.3a1.54,1.54,0,0,0,0-.17c.1-.35.19-.7.3-1s.15-.48.23-.71.18-.51.28-.76.11-.3.17-.45c.26-.64.53-1.28.84-1.9a25.26,25.26,0,0,1,8.79-10l-99.15,41.23-.45.05-5.92,2.88.13-1.47h0c-.38.15-.74.31-1.11.48Z"/><path class="cls-47" d="M532.15,725.19a22.7,22.7,0,0,0,16-.13L658.76,682.5a24.65,24.65,0,0,0,8-5.69c-1,.62-2,1.19-3,1.71a23.61,23.61,0,0,1-15,5.39c-.64,0-1.27,0-1.89-.08l-1,.08s-83.52,31.74-97.07,36.8A100.18,100.18,0,0,1,532.15,725.19Z"/><path class="cls-47" d="M846.06,821.16l39.64,2s-32.06-35.86-90.36-38.75q-2,0-3.93,0-9.76,0-19,.61h0c-9,.58-17.64,1.57-25.85,2.86C809.35,780.62,846.06,821.16,846.06,821.16Z"/><path class="cls-47" d="M1145.18,986.51c-1.11-1.35-2.21-2.58-3.26-3.64h0l-.4-.4a37.22,37.22,0,0,0-8-6.24h-18c7.24,3.15,14.3,13.77,14.3,13.77Z"/><path class="cls-47" d="M1141.52,976.38l3.3-.16H1133.5a37.22,37.22,0,0,1,8,6.24Z"/><path class="cls-47" d="M1155.83,984.11l22.35-5.06,0,0-4.36-2.81h-13.13l-7.82,1.2-3.27-1.2h-4.76A42.7,42.7,0,0,1,1155.83,984.11Z"/><path class="cls-47" d="M1118.24,984a22.17,22.17,0,0,0-2.74-1.91L1073,980.87l15.41,23.87,38-10.68A53.84,53.84,0,0,0,1118.24,984Z"/><path class="cls-47" d="M1035.4,934.31v0l-.4-.92-3-7-6.12-14-27.62-9.6a243.56,243.56,0,0,1,13.94,24.27Z"/><path class="cls-47" d="M766.51,907.18c126.14-86,209,0,209,0-5-9.57-38.89-36.25-38.89-36.25C826,826.86,766.51,907.18,766.51,907.18Z"/><path class="cls-47" d="M630.69,942.64l63.91,2.56a137.83,137.83,0,0,1,11.91-20.55l-67.15-.79Z"/><path class="cls-47" d="M756.8,819.27l32.9,1.89s-49.84-23.18-102.05-17A230.77,230.77,0,0,0,642,828.82C726.73,815.8,756.8,819.27,756.8,819.27Z"/><path class="cls-47" d="M936.6,827.9A220.66,220.66,0,0,0,906,810l-.47-.05c-6.76-.35,0,15.57,0,15.57S924.31,825.67,936.6,827.9Z"/><path class="cls-47" d="M1188,978.42l.56.2,11.93-2.4h-18.7l3.61,1.28C1186.29,977.78,1187.16,978.09,1188,978.42Z"/><polygon class="cls-47" points="1035.4 934.32 1149.58 976.22 1158.87 976.22 1158.87 975.48 1031.95 926.41 1034.99 933.37 1035.39 934.29 1035.4 934.32"/><polygon class="cls-47" points="1035.4 934.32 1035.39 934.29 1034.99 933.37 1035.39 934.29 1035.4 934.32"/><path class="cls-47" d="M609.41,1413.3q-5.48-3.06-11.09-5.79c-3.74-1.81-7.57-3.46-11.46-4.94s-7.8-2.91-11.67-4.45l-11.61-4.6L551.94,1389c-7.79-2.94-15.55-6-23.37-8.84a.3.3,0,0,0-.37.15.29.29,0,0,0,.13.4c7.44,3.76,14.94,7.36,22.41,11l11.25,5.42,11.29,5.34c3.76,1.78,7.48,3.66,11.22,5.5s7.55,3.5,11.43,5,7.82,2.88,11.8,4.15a117.25,117.25,0,0,0,12.17,3.31.29.29,0,0,0,.31-.12.31.31,0,0,0-.07-.43A122,122,0,0,0,609.41,1413.3Z"/></g><g id="Lumière_rouge" data-name="Lumière rouge" class="cls-45"><path class="cls-48" d="M308.69,1101.77c-1.35,1.71-2.83,2.75-4.46,2.81H328.4l.47-.41a28.42,28.42,0,0,0,2.28-2.25l-.09-.15Z"/><path class="cls-48" d="M305.79,1096c.2-.34.4-.7.61-1.09H255.86v5H303l1.52-1.92C304.92,1097.35,305.35,1096.71,305.79,1096Z"/><path class="cls-48" d="M350.67,1093.15c.08-.2.12-.33.12-.33H337.31c-.81,1.63-1.75,3.13-1.75,3.13h12.25A7.4,7.4,0,0,0,350.67,1093.15Z"/><path class="cls-48" d="M376.45,1103.09a18,18,0,0,0,2.19-4.17h15.05c.19-.29.36-.59.54-.89.45-.76,1.13-2,1.89-3.54a63.58,63.58,0,0,0,3.85-11s0,0,0-.07-4.46,11-7.49,12.55h-18s-1.07,5-5.19,6.87-23.15,2.8-23.15,2.8l27.29.22A16.68,16.68,0,0,0,376.45,1103.09Z"/><path class="cls-48" d="M969.27,1201.25l1.39.51a241.13,241.13,0,0,0,17.89-21.08A172.61,172.61,0,0,1,969.27,1201.25Z"/><path class="cls-48" d="M924.62,1231.5l-2.31,1.74c-25.49,12.58-58.27,22.21-98.9,22.21-117.29,0-213.94-68.63-213.94-68.63v6h0l-10.71-.77h0A251.34,251.34,0,0,0,933.32,1234l-8.7-2.51Z"/><polygon class="cls-48" points="553.3 1175.23 595.8 1188.56 595.81 1188.57 609.47 1192.85 609.47 1186.82 556.89 1171.18 533.49 1133.27 547.96 1160.75 546.22 1160.24 547.96 1163.93 553.3 1175.23"/><polygon class="cls-48" points="535.5 1172.8 553.3 1175.23 547.96 1163.93 528.18 1157.94 378.64 1112.67 366.06 1111.95 530.3 1162.24 535.5 1172.8"/><polygon class="cls-48" points="547.96 1163.93 546.22 1160.24 382.33 1111.95 378.64 1105.8 378.64 1112.67 528.18 1157.94 547.96 1163.93"/><polygon class="cls-48" points="493.16 1450.29 493.16 1450.29 463.68 1668.94 484.26 1648.49 530.18 1437.88 493.16 1450.29 493.16 1450.29"/><polygon class="cls-48" points="524.99 1405.06 524.98 1404.98 518.72 1409.21 479.53 1435.71 493.16 1450.29 530.18 1437.88 530.18 1437.88 530.18 1437.88 530.18 1437.87 530.3 1437.34 530.67 1436.53 528.45 1424.19 524.99 1405.06"/><path class="cls-48" d="M643.67,1420.49a11.26,11.26,0,0,1,2.51.78,22.37,22.37,0,0,1,2.36,1.15,31.61,31.61,0,0,1,4.33,2.88,29.32,29.32,0,0,1,6.84,7.46,22,22,0,0,1,2.13,18.87c-1.92,6.4-5.83,12.21-11.88,14.95a25.58,25.58,0,0,1-9.8,2.21,40,40,0,0,1-10.45-1,24.89,24.89,0,0,0,35.09-22.7c0-.43,0-.86,0-1.28A24.9,24.9,0,0,0,643.67,1420.49Z"/><polygon class="cls-48" points="1112.04 1572.98 1120.94 1581.51 1124.98 1585.39 2194.11 1314.5 2163.79 1310.93 1112.04 1572.98"/><path class="cls-48" d="M2191.58,808.67l-127,12.53a7.64,7.64,0,0,1-1.44.14,7.79,7.79,0,0,1-1.61-.19l-2,.19L1501.7,873l712.18-61-21.55-3.4Z"/><polygon class="cls-48" points="1491.76 1103.74 1501.7 1103.74 1569.65 1103.74 1567.88 1100.64 1490.91 1103.74 1491.76 1103.74"/><path class="cls-48" d="M2266.12,797.44a3.92,3.92,0,0,1-.78-.77l-194.2,20.71-10.42,3.56a8,8,0,0,0,.81.21l159.8-15.41,2.27-.22h0l49.11-4.84A9.08,9.08,0,0,1,2266.12,797.44Z"/><polygon class="cls-48" points="1501.7 1207.94 2170.57 1279.77 2197.7 1275.32 1501.7 1207.94"/><polygon class="cls-48" points="2170.57 1279.77 2212.71 1284.3 2212.71 1277.7 2197.7 1275.32 2170.57 1279.77"/><polygon class="cls-48" points="924.62 1231.5 932.26 1233.43 933.34 1233.7 933.34 1233.7 933.65 1233.78 933.66 1233.78 946.73 1237.07 944.38 1231.5 924.62 1231.5"/><polygon class="cls-48" points="944.38 1231.5 946.73 1237.07 964.37 1226.56 964.37 1226.56 956.64 1226.15 944.38 1231.5"/><path class="cls-48" d="M971.55,1221.76l-.42,0a5.28,5.28,0,0,1-1.38-.27l-4.82,4.57.41,0h0c3.82-.49,10.43-2.33,12.31-9.19A6.6,6.6,0,0,1,971.55,1221.76Z"/><polygon class="cls-48" points="1035.1 1146.53 1045.8 1122.18 1045.8 1122.18 1033.11 1151.06 1081.56 1132.27 1095.59 1126.82 1102.78 1124.03 1102.78 1124.03 1119.6 1117.51 1035.1 1146.53"/><path class="cls-48" d="M1025.22,1160.39,996,1170.22l-.22.31c-.48.71-1,1.4-1.46,2.1l-1.81,2.6,1.17,1,33.19-11.07,6.2-14.1,12.69-28.87Z"/><path class="cls-48" d="M758,1226.11l34.34,18.34,5.23-14.79-.09,0-6.85,10.5Z"/><path class="cls-48" d="M802,1220.39a8.13,8.13,0,0,0-.35-2.39h0a8.34,8.34,0,0,1,0,4.78l0,0,0,0A8.13,8.13,0,0,0,802,1220.39Z"/><path class="cls-48" d="M797.91,1228.61h0a11.18,11.18,0,0,0,3.73-5.77,7.13,7.13,0,0,1-3.14,4.11,5.68,5.68,0,0,1-2.17.76s-3.22.56-7.25,1.73-12.58-4.06-12.58-4.06a13.08,13.08,0,0,0,1.31,2.16,19.46,19.46,0,0,0,4.74,3.8,10.51,10.51,0,0,0,2.54.7l3.23.06a17.8,17.8,0,0,0,9.59-3.48Z"/><path class="cls-48" d="M869.62,1220.16a198.62,198.62,0,0,0,37.09-6.68c27.4-8.54,52.47-24.84,73-47.89q3.54-4,6.83-8.14a303.9,303.9,0,0,1-24,23.08C929.3,1209.68,869.62,1220.16,869.62,1220.16Z"/><polygon class="cls-48" points="959.36 1187.58 959.36 1187.58 958.78 1187.1 958.78 1187.1 959.36 1187.58"/><polygon class="cls-48" points="1497.7 984.69 1499.27 987.28 1501.7 987.29 1557.25 987.53 1561.83 987.55 1497.7 984.69 1497.7 984.69"/><path class="cls-48" d="M1523.86,1024s20.48,2.74,24.65-1.8a10,10,0,0,1-5.65,1.8,10.12,10.12,0,0,1-6.08-2.13l.1.1-14.74,1.85A9.74,9.74,0,0,0,1523.86,1024Z"/><path class="cls-48" d="M1546.4,1080.73a6.09,6.09,0,0,1-3.54,1.22,5.73,5.73,0,0,1-2.49-.59c-4.64-1.32-8.37-5.94-8.37-5.94.8,2.42,4.88,6.5,4.88,6.5l-1.93.24a10.69,10.69,0,0,0,7.91,3.79,10,10,0,0,0,5.65-1.8l0,0c3.94-2.68,6.63-8.07,6.63-14.29a19.71,19.71,0,0,0-2.2-9.19c.9,4.75,1,11.49-3.35,17.18A10.89,10.89,0,0,1,1546.4,1080.73Z"/></g><g id="Trainées"><polygon class="cls-49" points="986.01 552.03 749.79 655.58 991.68 574.68 986.01 552.03"/><polygon class="cls-50" points="998.15 1538.19 749.79 1454.04 986.82 1526.06 998.15 1538.19"/><polygon class="cls-51" points="414.87 1644.17 125.24 1454.04 388.98 1615.04 414.87 1644.17"/><polygon class="cls-52" points="393.02 459.81 94.49 655.58 368.75 488.93 393.02 459.81"/></g></g></g></svg>